<svg width="440" height="440" viewBox="0 0 440 440" fill="none" xmlns="http://www.w3.org/2000/svg">
<rect width="440" height="440" rx="4" fill="white"/>
<path d="M117.305 207.24C115.817 207.24 114.553 206.984 113.513 206.472C112.489 205.944 111.705 205.2 111.161 204.24C110.617 203.264 110.313 202.096 110.249 200.736C110.233 200.08 110.225 199.376 110.225 198.624C110.225 197.872 110.233 197.152 110.249 196.464C110.313 195.12 110.617 193.96 111.161 192.984C111.721 192.008 112.513 191.264 113.537 190.752C114.577 190.224 115.833 189.96 117.305 189.96C118.393 189.96 119.369 190.104 120.233 190.392C121.097 190.68 121.833 191.08 122.441 191.592C123.049 192.088 123.521 192.672 123.857 193.344C124.193 194.016 124.369 194.744 124.385 195.528C124.401 195.672 124.353 195.792 124.241 195.888C124.145 195.984 124.025 196.032 123.881 196.032H121.601C121.425 196.032 121.281 195.992 121.169 195.912C121.057 195.816 120.977 195.664 120.929 195.456C120.673 194.4 120.233 193.68 119.609 193.296C118.985 192.912 118.209 192.72 117.281 192.72C116.209 192.72 115.353 193.024 114.713 193.632C114.073 194.224 113.729 195.208 113.681 196.584C113.633 197.896 113.633 199.24 113.681 200.616C113.729 201.992 114.073 202.984 114.713 203.592C115.353 204.184 116.209 204.48 117.281 204.48C118.209 204.48 118.985 204.288 119.609 203.904C120.233 203.504 120.673 202.784 120.929 201.744C120.977 201.52 121.057 201.368 121.169 201.288C121.281 201.208 121.425 201.168 121.601 201.168H123.881C124.025 201.168 124.145 201.216 124.241 201.312C124.353 201.408 124.401 201.528 124.385 201.672C124.369 202.456 124.193 203.184 123.857 203.856C123.521 204.528 123.049 205.12 122.441 205.632C121.833 206.128 121.097 206.52 120.233 206.808C119.369 207.096 118.393 207.24 117.305 207.24ZM127.519 207C127.359 207 127.223 206.944 127.111 206.832C126.999 206.72 126.943 206.584 126.943 206.424V195.096C126.943 194.936 126.999 194.8 127.111 194.688C127.223 194.576 127.359 194.52 127.519 194.52H129.487C129.647 194.52 129.783 194.576 129.895 194.688C130.007 194.8 130.063 194.936 130.063 195.096V199.392H131.791L134.719 194.904C134.783 194.792 134.863 194.704 134.959 194.64C135.071 194.56 135.215 194.52 135.391 194.52H137.527C137.687 194.52 137.815 194.56 137.911 194.64C138.007 194.72 138.055 194.824 138.055 194.952C138.055 195 138.039 195.056 138.007 195.12C137.991 195.168 137.967 195.216 137.935 195.264L134.479 200.52L138.439 206.256C138.519 206.352 138.559 206.456 138.559 206.568C138.559 206.696 138.511 206.8 138.415 206.88C138.319 206.96 138.199 207 138.055 207H135.631C135.471 207 135.335 206.968 135.223 206.904C135.127 206.84 135.039 206.752 134.959 206.64L131.791 201.936H130.063V206.424C130.063 206.584 130.007 206.72 129.895 206.832C129.783 206.944 129.647 207 129.487 207H127.519ZM146.174 207.24C144.894 207.24 143.814 207.016 142.934 206.568C142.07 206.12 141.406 205.488 140.942 204.672C140.494 203.856 140.238 202.904 140.174 201.816C140.158 201.528 140.15 201.176 140.15 200.76C140.15 200.344 140.158 199.992 140.174 199.704C140.238 198.6 140.502 197.648 140.966 196.848C141.446 196.032 142.118 195.4 142.982 194.952C143.862 194.504 144.926 194.28 146.174 194.28C147.422 194.28 148.478 194.504 149.342 194.952C150.222 195.4 150.894 196.032 151.358 196.848C151.838 197.648 152.11 198.6 152.174 199.704C152.19 199.992 152.198 200.344 152.198 200.76C152.198 201.176 152.19 201.528 152.174 201.816C152.11 202.904 151.846 203.856 151.382 204.672C150.934 205.488 150.27 206.12 149.39 206.568C148.526 207.016 147.454 207.24 146.174 207.24ZM146.174 204.864C147.022 204.864 147.678 204.6 148.142 204.072C148.606 203.528 148.862 202.736 148.91 201.696C148.926 201.456 148.934 201.144 148.934 200.76C148.934 200.376 148.926 200.064 148.91 199.824C148.862 198.8 148.606 198.016 148.142 197.472C147.678 196.928 147.022 196.656 146.174 196.656C145.326 196.656 144.67 196.928 144.206 197.472C143.742 198.016 143.486 198.8 143.438 199.824C143.422 200.064 143.414 200.376 143.414 200.76C143.414 201.144 143.422 201.456 143.438 201.696C143.486 202.736 143.742 203.528 144.206 204.072C144.67 204.6 145.326 204.864 146.174 204.864ZM155.457 211.56C155.297 211.56 155.161 211.504 155.049 211.392C154.937 211.28 154.881 211.144 154.881 210.984V195.096C154.881 194.936 154.937 194.8 155.049 194.688C155.161 194.576 155.297 194.52 155.457 194.52H157.353C157.529 194.52 157.665 194.576 157.761 194.688C157.873 194.8 157.929 194.936 157.929 195.096V196.056C158.313 195.544 158.817 195.12 159.441 194.784C160.065 194.448 160.841 194.28 161.769 194.28C162.617 194.28 163.353 194.416 163.977 194.688C164.601 194.96 165.121 195.352 165.537 195.864C165.953 196.36 166.273 196.952 166.497 197.64C166.721 198.328 166.849 199.088 166.881 199.92C166.897 200.192 166.905 200.472 166.905 200.76C166.905 201.048 166.897 201.336 166.881 201.624C166.865 202.424 166.745 203.168 166.521 203.856C166.297 204.528 165.969 205.12 165.537 205.632C165.121 206.128 164.601 206.52 163.977 206.808C163.353 207.096 162.617 207.24 161.769 207.24C160.905 207.24 160.169 207.088 159.561 206.784C158.953 206.464 158.457 206.048 158.073 205.536V210.984C158.073 211.144 158.017 211.28 157.905 211.392C157.809 211.504 157.673 211.56 157.497 211.56H155.457ZM160.881 204.672C161.569 204.672 162.105 204.528 162.489 204.24C162.873 203.936 163.145 203.544 163.305 203.064C163.481 202.584 163.585 202.056 163.617 201.48C163.649 201 163.649 200.52 163.617 200.04C163.585 199.464 163.481 198.936 163.305 198.456C163.145 197.976 162.873 197.592 162.489 197.304C162.105 197 161.569 196.848 160.881 196.848C160.225 196.848 159.689 197 159.273 197.304C158.873 197.608 158.577 198 158.385 198.48C158.209 198.944 158.105 199.424 158.073 199.92C158.057 200.208 158.049 200.512 158.049 200.832C158.049 201.152 158.057 201.464 158.073 201.768C158.089 202.248 158.201 202.712 158.409 203.16C158.617 203.592 158.921 203.952 159.321 204.24C159.721 204.528 160.241 204.672 160.881 204.672ZM175.12 207.24C173.84 207.24 172.76 207.016 171.88 206.568C171.016 206.12 170.352 205.488 169.888 204.672C169.44 203.856 169.184 202.904 169.12 201.816C169.104 201.528 169.096 201.176 169.096 200.76C169.096 200.344 169.104 199.992 169.12 199.704C169.184 198.6 169.448 197.648 169.912 196.848C170.392 196.032 171.064 195.4 171.928 194.952C172.808 194.504 173.872 194.28 175.12 194.28C176.368 194.28 177.424 194.504 178.288 194.952C179.168 195.4 179.84 196.032 180.304 196.848C180.784 197.648 181.056 198.6 181.12 199.704C181.136 199.992 181.144 200.344 181.144 200.76C181.144 201.176 181.136 201.528 181.12 201.816C181.056 202.904 180.792 203.856 180.328 204.672C179.88 205.488 179.216 206.12 178.336 206.568C177.472 207.016 176.4 207.24 175.12 207.24ZM175.12 204.864C175.968 204.864 176.624 204.6 177.088 204.072C177.552 203.528 177.808 202.736 177.856 201.696C177.872 201.456 177.88 201.144 177.88 200.76C177.88 200.376 177.872 200.064 177.856 199.824C177.808 198.8 177.552 198.016 177.088 197.472C176.624 196.928 175.968 196.656 175.12 196.656C174.272 196.656 173.616 196.928 173.152 197.472C172.688 198.016 172.432 198.8 172.384 199.824C172.368 200.064 172.36 200.376 172.36 200.76C172.36 201.144 172.368 201.456 172.384 201.696C172.432 202.736 172.688 203.528 173.152 204.072C173.616 204.6 174.272 204.864 175.12 204.864ZM194.087 207.24C193.063 207.24 192.199 207.12 191.495 206.88C190.807 206.64 190.255 206.336 189.839 205.968C189.439 205.6 189.143 205.216 188.951 204.816C188.775 204.4 188.671 204.024 188.639 203.688C188.639 203.544 188.687 203.432 188.783 203.352C188.879 203.272 188.983 203.232 189.095 203.232H191.063C191.223 203.232 191.343 203.264 191.423 203.328C191.519 203.392 191.599 203.496 191.663 203.64C191.823 204.12 192.119 204.456 192.551 204.648C192.999 204.84 193.551 204.936 194.207 204.936C194.655 204.936 195.055 204.88 195.407 204.768C195.759 204.64 196.031 204.456 196.223 204.216C196.415 203.96 196.511 203.648 196.511 203.28C196.511 202.752 196.359 202.352 196.055 202.08C195.751 201.792 195.255 201.648 194.567 201.648H193.247C193.087 201.648 192.959 201.6 192.863 201.504C192.767 201.408 192.719 201.28 192.719 201.12V200.112C192.719 199.968 192.767 199.848 192.863 199.752C192.959 199.64 193.087 199.584 193.247 199.584H194.471C195.047 199.584 195.479 199.48 195.767 199.272C196.055 199.048 196.199 198.704 196.199 198.24C196.199 197.968 196.127 197.712 195.983 197.472C195.855 197.216 195.639 197.008 195.335 196.848C195.031 196.688 194.607 196.608 194.063 196.608C193.311 196.608 192.775 196.728 192.455 196.968C192.135 197.208 191.903 197.568 191.759 198.048C191.695 198.192 191.615 198.296 191.519 198.36C191.439 198.424 191.311 198.456 191.135 198.456H189.239C189.111 198.456 188.999 198.416 188.903 198.336C188.823 198.256 188.783 198.144 188.783 198C188.815 197.568 188.927 197.136 189.119 196.704C189.327 196.256 189.639 195.848 190.055 195.48C190.487 195.112 191.031 194.824 191.687 194.616C192.343 194.392 193.143 194.28 194.087 194.28C195.367 194.28 196.383 194.456 197.135 194.808C197.887 195.16 198.423 195.608 198.743 196.152C199.079 196.68 199.247 197.232 199.247 197.808C199.247 198.4 199.135 198.912 198.911 199.344C198.703 199.776 198.311 200.128 197.735 200.4C198.455 200.672 198.951 201.088 199.223 201.648C199.495 202.208 199.639 202.824 199.655 203.496C199.655 204.296 199.423 204.976 198.959 205.536C198.495 206.08 197.847 206.504 197.015 206.808C196.183 207.096 195.207 207.24 194.087 207.24ZM201.651 209.64C201.491 209.64 201.355 209.584 201.243 209.472C201.131 209.36 201.075 209.224 201.075 209.064V205.032C201.075 204.872 201.131 204.736 201.243 204.624C201.355 204.512 201.491 204.456 201.651 204.456H201.843C202.259 204.456 202.595 204.24 202.851 203.808C203.123 203.36 203.323 202.688 203.451 201.792C203.579 200.88 203.643 199.728 203.643 198.336V195.096C203.643 194.936 203.699 194.8 203.811 194.688C203.923 194.576 204.059 194.52 204.219 194.52H212.763C212.939 194.52 213.075 194.576 213.171 194.688C213.283 194.8 213.339 194.936 213.339 195.096V204.432H214.419C214.595 204.432 214.731 204.488 214.827 204.6C214.939 204.712 214.995 204.848 214.995 205.008V209.064C214.995 209.224 214.939 209.36 214.827 209.472C214.731 209.584 214.595 209.64 214.419 209.64H212.427C212.267 209.64 212.131 209.584 212.019 209.472C211.907 209.36 211.851 209.224 211.851 209.064V207H204.219V209.064C204.219 209.224 204.163 209.36 204.051 209.472C203.939 209.584 203.803 209.64 203.643 209.64H201.651ZM205.539 204.456L210.195 204.432V197.064H206.667V198.672C206.667 200.112 206.571 201.304 206.379 202.248C206.187 203.192 205.907 203.928 205.539 204.456ZM222.577 207.24C220.801 207.24 219.393 206.728 218.353 205.704C217.313 204.68 216.753 203.224 216.673 201.336C216.657 201.176 216.649 200.976 216.649 200.736C216.649 200.48 216.657 200.28 216.673 200.136C216.737 198.936 217.009 197.896 217.489 197.016C217.985 196.136 218.665 195.464 219.529 195C220.393 194.52 221.409 194.28 222.577 194.28C223.873 194.28 224.961 194.552 225.841 195.096C226.721 195.624 227.385 196.368 227.833 197.328C228.281 198.272 228.505 199.368 228.505 200.616V201.12C228.505 201.28 228.449 201.416 228.337 201.528C228.225 201.64 228.081 201.696 227.905 201.696H219.937C219.937 201.696 219.937 201.72 219.937 201.768C219.937 201.816 219.937 201.856 219.937 201.888C219.953 202.448 220.057 202.968 220.249 203.448C220.457 203.912 220.753 204.288 221.137 204.576C221.537 204.864 222.009 205.008 222.553 205.008C223.001 205.008 223.377 204.944 223.681 204.816C223.985 204.672 224.233 204.512 224.425 204.336C224.617 204.16 224.753 204.016 224.833 203.904C224.977 203.712 225.089 203.6 225.169 203.568C225.265 203.52 225.401 203.496 225.577 203.496H227.641C227.801 203.496 227.929 203.544 228.025 203.64C228.137 203.736 228.185 203.856 228.169 204C228.153 204.256 228.017 204.568 227.761 204.936C227.521 205.304 227.169 205.664 226.705 206.016C226.241 206.368 225.657 206.664 224.953 206.904C224.265 207.128 223.473 207.24 222.577 207.24ZM219.937 199.68H225.241V199.608C225.241 198.984 225.137 198.44 224.929 197.976C224.721 197.512 224.417 197.144 224.017 196.872C223.617 196.6 223.137 196.464 222.577 196.464C222.017 196.464 221.537 196.6 221.137 196.872C220.737 197.144 220.433 197.512 220.225 197.976C220.033 198.44 219.937 198.984 219.937 199.608V199.68ZM236.453 207.24C235.301 207.24 234.285 207.024 233.405 206.592C232.541 206.16 231.861 205.536 231.365 204.72C230.885 203.888 230.621 202.888 230.573 201.72C230.557 201.48 230.549 201.168 230.549 200.784C230.549 200.384 230.557 200.056 230.573 199.8C230.621 198.632 230.885 197.64 231.365 196.824C231.861 195.992 232.541 195.36 233.405 194.928C234.285 194.496 235.301 194.28 236.453 194.28C237.477 194.28 238.349 194.424 239.069 194.712C239.789 195 240.381 195.36 240.845 195.792C241.309 196.224 241.653 196.68 241.877 197.16C242.117 197.624 242.245 198.048 242.261 198.432C242.277 198.608 242.221 198.752 242.093 198.864C241.981 198.96 241.845 199.008 241.685 199.008H239.573C239.413 199.008 239.285 198.968 239.189 198.888C239.109 198.808 239.029 198.688 238.949 198.528C238.709 197.888 238.389 197.44 237.989 197.184C237.605 196.912 237.109 196.776 236.501 196.776C235.701 196.776 235.061 197.032 234.581 197.544C234.117 198.04 233.869 198.832 233.837 199.92C233.805 200.528 233.805 201.088 233.837 201.6C233.869 202.704 234.117 203.504 234.581 204C235.061 204.496 235.701 204.744 236.501 204.744C237.125 204.744 237.629 204.616 238.013 204.36C238.397 204.088 238.709 203.632 238.949 202.992C239.029 202.832 239.109 202.712 239.189 202.632C239.285 202.552 239.413 202.512 239.573 202.512H241.685C241.845 202.512 241.981 202.568 242.093 202.68C242.221 202.776 242.277 202.912 242.261 203.088C242.245 203.376 242.165 203.704 242.021 204.072C241.893 204.424 241.677 204.792 241.373 205.176C241.085 205.544 240.717 205.888 240.269 206.208C239.821 206.512 239.277 206.76 238.637 206.952C238.013 207.144 237.285 207.24 236.453 207.24ZM245.34 207C245.18 207 245.044 206.944 244.932 206.832C244.82 206.72 244.764 206.584 244.764 206.424V195.096C244.764 194.936 244.82 194.8 244.932 194.688C245.044 194.576 245.18 194.52 245.34 194.52H247.356C247.516 194.52 247.652 194.576 247.764 194.688C247.876 194.8 247.932 194.936 247.932 195.096V198.48H250.404C252.036 198.48 253.26 198.864 254.076 199.632C254.892 200.4 255.3 201.456 255.3 202.8C255.3 204.192 254.86 205.24 253.98 205.944C253.1 206.648 251.844 207 250.212 207H245.34ZM247.884 204.72H250.14C250.924 204.72 251.5 204.576 251.868 204.288C252.252 204 252.444 203.504 252.444 202.8C252.444 202.112 252.26 201.6 251.892 201.264C251.54 200.928 250.956 200.76 250.14 200.76H247.884V204.72ZM268.615 207.24C267.287 207.24 266.183 207.008 265.303 206.544C264.439 206.064 263.791 205.368 263.359 204.456C262.927 203.544 262.679 202.432 262.615 201.12C262.615 200.656 262.615 200.176 262.615 199.68C262.615 199.184 262.615 198.704 262.615 198.24C262.647 196.832 262.783 195.664 263.023 194.736C263.279 193.792 263.655 193.016 264.151 192.408C264.647 191.784 265.287 191.272 266.071 190.872C266.855 190.456 267.783 190.096 268.855 189.792C269.927 189.488 271.167 189.168 272.575 188.832C272.735 188.8 272.879 188.824 273.007 188.904C273.151 188.984 273.231 189.112 273.247 189.288L273.559 190.872C273.591 191.032 273.567 191.176 273.487 191.304C273.407 191.416 273.295 191.488 273.151 191.52C271.935 191.792 270.887 192.04 270.007 192.264C269.127 192.472 268.399 192.712 267.823 192.984C267.247 193.256 266.791 193.616 266.455 194.064C266.135 194.496 265.911 195.064 265.783 195.768C265.655 196.472 265.615 197.376 265.663 198.48L265.111 198.024C265.207 197.528 265.455 197.072 265.855 196.656C266.255 196.24 266.743 195.912 267.319 195.672C267.911 195.416 268.535 195.288 269.191 195.288C270.343 195.288 271.311 195.504 272.095 195.936C272.879 196.368 273.479 196.976 273.895 197.76C274.327 198.528 274.567 199.432 274.615 200.472C274.647 201.048 274.647 201.576 274.615 202.056C274.567 203.08 274.311 203.984 273.847 204.768C273.383 205.552 272.719 206.16 271.855 206.592C270.991 207.024 269.911 207.24 268.615 207.24ZM268.615 205.032C269.479 205.032 270.143 204.768 270.607 204.24C271.071 203.712 271.319 202.944 271.351 201.936C271.367 201.76 271.375 201.552 271.375 201.312C271.375 201.056 271.367 200.816 271.351 200.592C271.319 199.584 271.071 198.816 270.607 198.288C270.159 197.76 269.559 197.496 268.807 197.496C267.943 197.496 267.247 197.76 266.719 198.288C266.207 198.816 265.935 199.584 265.903 200.592C265.887 200.816 265.879 201.056 265.879 201.312C265.879 201.552 265.887 201.76 265.903 201.936C265.935 202.944 266.183 203.712 266.647 204.24C267.111 204.768 267.767 205.032 268.615 205.032ZM278.183 211.56C278.023 211.56 277.887 211.504 277.775 211.392C277.663 211.296 277.607 211.16 277.607 210.984V209.616C277.607 209.44 277.663 209.296 277.775 209.184C277.887 209.088 278.023 209.04 278.183 209.04H278.927C279.247 209.04 279.511 208.976 279.719 208.848C279.927 208.72 280.119 208.504 280.295 208.2C280.471 207.912 280.663 207.512 280.871 207L285.863 194.976C285.927 194.848 286.007 194.744 286.103 194.664C286.199 194.568 286.343 194.52 286.535 194.52H288.359C288.487 194.52 288.599 194.568 288.695 194.664C288.807 194.76 288.863 194.872 288.863 195C288.863 195.064 288.855 195.12 288.839 195.168C288.839 195.216 288.815 195.288 288.767 195.384L284.207 206.28C283.935 206.968 283.639 207.624 283.319 208.248C283.015 208.888 282.671 209.456 282.287 209.952C281.919 210.464 281.487 210.856 280.991 211.128C280.495 211.416 279.911 211.56 279.239 211.56H278.183ZM281.279 206.688L276.407 195.384C276.343 195.224 276.311 195.112 276.311 195.048C276.327 194.904 276.383 194.784 276.479 194.688C276.575 194.576 276.695 194.52 276.839 194.52H278.759C278.951 194.52 279.087 194.568 279.167 194.664C279.263 194.76 279.335 194.864 279.383 194.976L283.103 204.144L281.279 206.688ZM290.502 209.64C290.342 209.64 290.206 209.584 290.094 209.472C289.982 209.36 289.926 209.224 289.926 209.064V205.032C289.926 204.872 289.982 204.736 290.094 204.624C290.206 204.512 290.342 204.456 290.502 204.456H290.694C291.11 204.456 291.446 204.24 291.702 203.808C291.974 203.36 292.174 202.688 292.302 201.792C292.43 200.88 292.494 199.728 292.494 198.336V195.096C292.494 194.936 292.55 194.8 292.662 194.688C292.774 194.576 292.91 194.52 293.07 194.52H301.614C301.79 194.52 301.926 194.576 302.022 194.688C302.134 194.8 302.19 194.936 302.19 195.096V204.432H303.27C303.446 204.432 303.582 204.488 303.678 204.6C303.79 204.712 303.846 204.848 303.846 205.008V209.064C303.846 209.224 303.79 209.36 303.678 209.472C303.582 209.584 303.446 209.64 303.27 209.64H301.278C301.118 209.64 300.982 209.584 300.87 209.472C300.758 209.36 300.702 209.224 300.702 209.064V207H293.07V209.064C293.07 209.224 293.014 209.36 292.902 209.472C292.79 209.584 292.654 209.64 292.494 209.64H290.502ZM294.39 204.456L299.046 204.432V197.064H295.518V198.672C295.518 200.112 295.422 201.304 295.23 202.248C295.038 203.192 294.758 203.928 294.39 204.456ZM311.429 207.24C309.653 207.24 308.245 206.728 307.205 205.704C306.165 204.68 305.605 203.224 305.525 201.336C305.509 201.176 305.501 200.976 305.501 200.736C305.501 200.48 305.509 200.28 305.525 200.136C305.589 198.936 305.861 197.896 306.341 197.016C306.837 196.136 307.517 195.464 308.381 195C309.245 194.52 310.261 194.28 311.429 194.28C312.725 194.28 313.813 194.552 314.693 195.096C315.573 195.624 316.237 196.368 316.685 197.328C317.133 198.272 317.357 199.368 317.357 200.616V201.12C317.357 201.28 317.301 201.416 317.189 201.528C317.077 201.64 316.933 201.696 316.757 201.696H308.789C308.789 201.696 308.789 201.72 308.789 201.768C308.789 201.816 308.789 201.856 308.789 201.888C308.805 202.448 308.909 202.968 309.101 203.448C309.309 203.912 309.605 204.288 309.989 204.576C310.389 204.864 310.861 205.008 311.405 205.008C311.853 205.008 312.229 204.944 312.533 204.816C312.837 204.672 313.085 204.512 313.277 204.336C313.469 204.16 313.605 204.016 313.685 203.904C313.829 203.712 313.941 203.6 314.021 203.568C314.117 203.52 314.253 203.496 314.429 203.496H316.493C316.653 203.496 316.781 203.544 316.877 203.64C316.989 203.736 317.037 203.856 317.021 204C317.005 204.256 316.869 204.568 316.613 204.936C316.373 205.304 316.021 205.664 315.557 206.016C315.093 206.368 314.509 206.664 313.805 206.904C313.117 207.128 312.325 207.24 311.429 207.24ZM308.789 199.68H314.093V199.608C314.093 198.984 313.989 198.44 313.781 197.976C313.573 197.512 313.269 197.144 312.869 196.872C312.469 196.6 311.989 196.464 311.429 196.464C310.869 196.464 310.389 196.6 309.989 196.872C309.589 197.144 309.285 197.512 309.077 197.976C308.885 198.44 308.789 198.984 308.789 199.608V199.68ZM323.72 207C323.544 207 323.4 206.944 323.288 206.832C323.192 206.72 323.144 206.584 323.144 206.424V197.064H319.232C319.056 197.064 318.912 197.008 318.8 196.896C318.704 196.784 318.656 196.648 318.656 196.488V195.096C318.656 194.936 318.704 194.8 318.8 194.688C318.912 194.576 319.056 194.52 319.232 194.52H330.128C330.304 194.52 330.448 194.576 330.56 194.688C330.672 194.8 330.728 194.936 330.728 195.096V196.488C330.728 196.648 330.672 196.784 330.56 196.896C330.448 197.008 330.304 197.064 330.128 197.064H326.24V206.424C326.24 206.584 326.184 206.72 326.072 206.832C325.96 206.944 325.824 207 325.664 207H323.72ZM155.375 253.56C155.199 253.56 155.055 253.504 154.943 253.392C154.847 253.28 154.799 253.144 154.799 252.984V249C153.359 249 152.167 248.784 151.223 248.352C150.295 247.904 149.591 247.28 149.111 246.48C148.647 245.68 148.383 244.744 148.319 243.672C148.287 243.064 148.287 242.456 148.319 241.848C148.383 240.776 148.655 239.84 149.135 239.04C149.631 238.24 150.351 237.624 151.295 237.192C152.239 236.744 153.407 236.52 154.799 236.52V232.536C154.799 232.376 154.847 232.24 154.943 232.128C155.055 232.016 155.199 231.96 155.375 231.96H157.343C157.519 231.96 157.655 232.016 157.751 232.128C157.863 232.24 157.919 232.376 157.919 232.536V236.52C159.327 236.52 160.495 236.744 161.423 237.192C162.367 237.624 163.079 238.24 163.559 239.04C164.055 239.84 164.327 240.776 164.375 241.848C164.423 242.456 164.423 243.064 164.375 243.672C164.327 244.744 164.063 245.68 163.583 246.48C163.119 247.28 162.415 247.904 161.471 248.352C160.543 248.784 159.359 249 157.919 249V252.984C157.919 253.144 157.863 253.28 157.751 253.392C157.655 253.504 157.519 253.56 157.343 253.56H155.375ZM154.799 246.624V238.896C153.695 238.896 152.871 239.16 152.327 239.688C151.799 240.216 151.511 241.008 151.463 242.064C151.447 242.288 151.439 242.528 151.439 242.784C151.439 243.024 151.447 243.248 151.463 243.456C151.527 244.528 151.823 245.328 152.351 245.856C152.879 246.368 153.695 246.624 154.799 246.624ZM157.919 246.624C159.039 246.624 159.863 246.36 160.391 245.832C160.919 245.304 161.207 244.512 161.255 243.456C161.271 243.248 161.279 243.024 161.279 242.784C161.279 242.528 161.271 242.288 161.255 242.064C161.223 240.992 160.927 240.2 160.367 239.688C159.823 239.16 159.007 238.896 157.919 238.896V246.624ZM172.6 249.24C171.32 249.24 170.24 249.016 169.36 248.568C168.496 248.12 167.832 247.488 167.368 246.672C166.92 245.856 166.664 244.904 166.6 243.816C166.584 243.528 166.576 243.176 166.576 242.76C166.576 242.344 166.584 241.992 166.6 241.704C166.664 240.6 166.928 239.648 167.392 238.848C167.872 238.032 168.544 237.4 169.408 236.952C170.288 236.504 171.352 236.28 172.6 236.28C173.848 236.28 174.904 236.504 175.768 236.952C176.648 237.4 177.32 238.032 177.784 238.848C178.264 239.648 178.536 240.6 178.6 241.704C178.616 241.992 178.624 242.344 178.624 242.76C178.624 243.176 178.616 243.528 178.6 243.816C178.536 244.904 178.272 245.856 177.808 246.672C177.36 247.488 176.696 248.12 175.816 248.568C174.952 249.016 173.88 249.24 172.6 249.24ZM172.6 246.864C173.448 246.864 174.104 246.6 174.568 246.072C175.032 245.528 175.288 244.736 175.336 243.696C175.352 243.456 175.36 243.144 175.36 242.76C175.36 242.376 175.352 242.064 175.336 241.824C175.288 240.8 175.032 240.016 174.568 239.472C174.104 238.928 173.448 238.656 172.6 238.656C171.752 238.656 171.096 238.928 170.632 239.472C170.168 240.016 169.912 240.8 169.864 241.824C169.848 242.064 169.84 242.376 169.84 242.76C169.84 243.144 169.848 243.456 169.864 243.696C169.912 244.736 170.168 245.528 170.632 246.072C171.096 246.6 171.752 246.864 172.6 246.864ZM185.099 249C184.923 249 184.779 248.944 184.667 248.832C184.571 248.72 184.523 248.584 184.523 248.424V239.064H180.611C180.435 239.064 180.291 239.008 180.179 238.896C180.083 238.784 180.035 238.648 180.035 238.488V237.096C180.035 236.936 180.083 236.8 180.179 236.688C180.291 236.576 180.435 236.52 180.611 236.52H191.507C191.683 236.52 191.827 236.576 191.939 236.688C192.051 236.8 192.107 236.936 192.107 237.096V238.488C192.107 238.648 192.051 238.784 191.939 238.896C191.827 239.008 191.683 239.064 191.507 239.064H187.619V248.424C187.619 248.584 187.563 248.72 187.451 248.832C187.339 248.944 187.203 249 187.043 249H185.099ZM199.53 249.24C198.25 249.24 197.17 249.016 196.29 248.568C195.426 248.12 194.762 247.488 194.298 246.672C193.85 245.856 193.594 244.904 193.53 243.816C193.514 243.528 193.506 243.176 193.506 242.76C193.506 242.344 193.514 241.992 193.53 241.704C193.594 240.6 193.858 239.648 194.322 238.848C194.802 238.032 195.474 237.4 196.338 236.952C197.218 236.504 198.282 236.28 199.53 236.28C200.778 236.28 201.834 236.504 202.698 236.952C203.578 237.4 204.25 238.032 204.714 238.848C205.194 239.648 205.466 240.6 205.53 241.704C205.546 241.992 205.554 242.344 205.554 242.76C205.554 243.176 205.546 243.528 205.53 243.816C205.466 244.904 205.202 245.856 204.738 246.672C204.29 247.488 203.626 248.12 202.746 248.568C201.882 249.016 200.81 249.24 199.53 249.24ZM199.53 246.864C200.378 246.864 201.034 246.6 201.498 246.072C201.962 245.528 202.218 244.736 202.266 243.696C202.282 243.456 202.29 243.144 202.29 242.76C202.29 242.376 202.282 242.064 202.266 241.824C202.218 240.8 201.962 240.016 201.498 239.472C201.034 238.928 200.378 238.656 199.53 238.656C198.682 238.656 198.026 238.928 197.562 239.472C197.098 240.016 196.842 240.8 196.794 241.824C196.778 242.064 196.77 242.376 196.77 242.76C196.77 243.144 196.778 243.456 196.794 243.696C196.842 244.736 197.098 245.528 197.562 246.072C198.026 246.6 198.682 246.864 199.53 246.864ZM208.789 249C208.629 249 208.493 248.944 208.381 248.832C208.269 248.72 208.213 248.584 208.213 248.424V237.096C208.213 236.936 208.269 236.8 208.381 236.688C208.493 236.576 208.629 236.52 208.789 236.52H216.397C216.557 236.52 216.693 236.576 216.805 236.688C216.917 236.8 216.973 236.936 216.973 237.096V238.488C216.973 238.648 216.917 238.784 216.805 238.896C216.693 239.008 216.557 239.064 216.397 239.064H211.357V248.424C211.357 248.584 211.301 248.72 211.189 248.832C211.093 248.944 210.957 249 210.781 249H208.789ZM219.5 253.56C219.34 253.56 219.204 253.504 219.092 253.392C218.98 253.28 218.924 253.144 218.924 252.984V237.096C218.924 236.936 218.98 236.8 219.092 236.688C219.204 236.576 219.34 236.52 219.5 236.52H221.396C221.572 236.52 221.708 236.576 221.804 236.688C221.916 236.8 221.972 236.936 221.972 237.096V238.056C222.356 237.544 222.86 237.12 223.484 236.784C224.108 236.448 224.884 236.28 225.812 236.28C226.66 236.28 227.396 236.416 228.02 236.688C228.644 236.96 229.164 237.352 229.58 237.864C229.996 238.36 230.316 238.952 230.54 239.64C230.764 240.328 230.892 241.088 230.924 241.92C230.94 242.192 230.948 242.472 230.948 242.76C230.948 243.048 230.94 243.336 230.924 243.624C230.908 244.424 230.788 245.168 230.564 245.856C230.34 246.528 230.012 247.12 229.58 247.632C229.164 248.128 228.644 248.52 228.02 248.808C227.396 249.096 226.66 249.24 225.812 249.24C224.948 249.24 224.212 249.088 223.604 248.784C222.996 248.464 222.5 248.048 222.116 247.536V252.984C222.116 253.144 222.06 253.28 221.948 253.392C221.852 253.504 221.716 253.56 221.54 253.56H219.5ZM224.924 246.672C225.612 246.672 226.148 246.528 226.532 246.24C226.916 245.936 227.188 245.544 227.348 245.064C227.524 244.584 227.628 244.056 227.66 243.48C227.692 243 227.692 242.52 227.66 242.04C227.628 241.464 227.524 240.936 227.348 240.456C227.188 239.976 226.916 239.592 226.532 239.304C226.148 239 225.612 238.848 224.924 238.848C224.268 238.848 223.732 239 223.316 239.304C222.916 239.608 222.62 240 222.428 240.48C222.252 240.944 222.148 241.424 222.116 241.92C222.1 242.208 222.092 242.512 222.092 242.832C222.092 243.152 222.1 243.464 222.116 243.768C222.132 244.248 222.244 244.712 222.452 245.16C222.66 245.592 222.964 245.952 223.364 246.24C223.764 246.528 224.284 246.672 224.924 246.672ZM237.267 249.24C236.435 249.24 235.683 249.08 235.011 248.76C234.339 248.424 233.803 247.984 233.403 247.44C233.019 246.88 232.827 246.256 232.827 245.568C232.827 244.448 233.275 243.56 234.171 242.904C235.083 242.232 236.283 241.784 237.771 241.56L241.059 241.08V240.576C241.059 239.904 240.891 239.384 240.555 239.016C240.219 238.648 239.643 238.464 238.827 238.464C238.251 238.464 237.779 238.584 237.411 238.824C237.059 239.048 236.795 239.352 236.619 239.736C236.491 239.944 236.307 240.048 236.067 240.048H234.171C233.995 240.048 233.859 240 233.763 239.904C233.683 239.808 233.643 239.68 233.643 239.52C233.659 239.264 233.763 238.952 233.955 238.584C234.147 238.216 234.451 237.864 234.867 237.528C235.283 237.176 235.819 236.88 236.475 236.64C237.131 236.4 237.923 236.28 238.851 236.28C239.859 236.28 240.707 236.408 241.395 236.664C242.099 236.904 242.659 237.232 243.075 237.648C243.491 238.064 243.795 238.552 243.987 239.112C244.179 239.672 244.275 240.264 244.275 240.888V248.424C244.275 248.584 244.219 248.72 244.107 248.832C243.995 248.944 243.859 249 243.699 249H241.755C241.579 249 241.435 248.944 241.323 248.832C241.227 248.72 241.179 248.584 241.179 248.424V247.488C240.971 247.792 240.691 248.08 240.339 248.352C239.987 248.608 239.555 248.824 239.043 249C238.547 249.16 237.955 249.24 237.267 249.24ZM238.083 246.96C238.643 246.96 239.147 246.84 239.595 246.6C240.059 246.36 240.419 245.992 240.675 245.496C240.947 244.984 241.083 244.344 241.083 243.576V243.072L238.683 243.456C237.739 243.6 237.035 243.832 236.571 244.152C236.107 244.472 235.875 244.864 235.875 245.328C235.875 245.68 235.979 245.984 236.187 246.24C236.411 246.48 236.691 246.664 237.027 246.792C237.363 246.904 237.715 246.96 238.083 246.96ZM253.93 253.56C253.754 253.56 253.61 253.504 253.498 253.392C253.402 253.28 253.354 253.144 253.354 252.984V249C251.914 249 250.722 248.784 249.778 248.352C248.85 247.904 248.146 247.28 247.666 246.48C247.202 245.68 246.938 244.744 246.874 243.672C246.842 243.064 246.842 242.456 246.874 241.848C246.938 240.776 247.21 239.84 247.69 239.04C248.186 238.24 248.906 237.624 249.85 237.192C250.794 236.744 251.962 236.52 253.354 236.52V232.536C253.354 232.376 253.402 232.24 253.498 232.128C253.61 232.016 253.754 231.96 253.93 231.96H255.898C256.074 231.96 256.21 232.016 256.306 232.128C256.418 232.24 256.474 232.376 256.474 232.536V236.52C257.882 236.52 259.05 236.744 259.978 237.192C260.922 237.624 261.634 238.24 262.114 239.04C262.61 239.84 262.882 240.776 262.93 241.848C262.978 242.456 262.978 243.064 262.93 243.672C262.882 244.744 262.618 245.68 262.138 246.48C261.674 247.28 260.97 247.904 260.026 248.352C259.098 248.784 257.914 249 256.474 249V252.984C256.474 253.144 256.418 253.28 256.306 253.392C256.21 253.504 256.074 253.56 255.898 253.56H253.93ZM253.354 246.624V238.896C252.25 238.896 251.426 239.16 250.882 239.688C250.354 240.216 250.066 241.008 250.018 242.064C250.002 242.288 249.994 242.528 249.994 242.784C249.994 243.024 250.002 243.248 250.018 243.456C250.082 244.528 250.378 245.328 250.906 245.856C251.434 246.368 252.25 246.624 253.354 246.624ZM256.474 246.624C257.594 246.624 258.418 246.36 258.946 245.832C259.474 245.304 259.762 244.512 259.81 243.456C259.826 243.248 259.834 243.024 259.834 242.784C259.834 242.528 259.826 242.288 259.81 242.064C259.778 240.992 259.482 240.2 258.922 239.688C258.378 239.16 257.562 238.896 256.474 238.896V246.624ZM266.187 249C266.043 249 265.915 248.944 265.803 248.832C265.691 248.72 265.635 248.592 265.635 248.448V237.096C265.635 236.936 265.691 236.8 265.803 236.688C265.915 236.576 266.051 236.52 266.211 236.52H268.203C268.379 236.52 268.515 236.576 268.611 236.688C268.723 236.8 268.779 236.936 268.779 237.096V246.576L267.939 245.976L274.539 236.904C274.619 236.792 274.707 236.704 274.803 236.64C274.899 236.56 275.027 236.52 275.187 236.52H277.011C277.155 236.52 277.283 236.576 277.395 236.688C277.507 236.784 277.563 236.904 277.563 237.048V248.424C277.563 248.584 277.507 248.72 277.395 248.832C277.283 248.944 277.147 249 276.987 249H274.995C274.819 249 274.675 248.944 274.563 248.832C274.467 248.72 274.419 248.584 274.419 248.424V239.376L275.307 239.496L268.659 248.616C268.595 248.712 268.507 248.8 268.395 248.88C268.299 248.96 268.171 249 268.011 249H266.187ZM288.508 249C288.332 249 288.188 248.944 288.076 248.832C287.98 248.72 287.932 248.584 287.932 248.424V244.752H285.556V244.632C283.94 244.632 282.724 244.264 281.908 243.528C281.108 242.776 280.708 241.792 280.708 240.576C280.708 239.232 281.132 238.224 281.98 237.552C282.828 236.864 284.052 236.52 285.652 236.52H290.548C290.708 236.52 290.844 236.576 290.956 236.688C291.068 236.8 291.124 236.936 291.124 237.096V248.424C291.124 248.584 291.068 248.72 290.956 248.832C290.844 248.944 290.708 249 290.548 249H288.508ZM280.828 249C280.684 249 280.564 248.952 280.468 248.856C280.372 248.76 280.324 248.648 280.324 248.52C280.324 248.472 280.332 248.416 280.348 248.352C280.364 248.272 280.404 248.2 280.468 248.136L283.156 243.912L286.084 244.296L283.42 248.64C283.372 248.736 283.292 248.824 283.18 248.904C283.068 248.968 282.948 249 282.82 249H280.828ZM285.58 242.472H287.98V238.8H285.724C284.988 238.8 284.444 238.936 284.092 239.208C283.74 239.464 283.564 239.92 283.564 240.576C283.564 241.136 283.724 241.592 284.044 241.944C284.38 242.296 284.892 242.472 285.58 242.472Z" fill="#2F4698"/>
<path fill-rule="evenodd" clip-rule="evenodd" d="M391 19V25H25V392H18L18 422H48V415H415V49H421V19H391ZM28 28H412V412H28V28Z" fill="#C7C7C7"/>
</svg>
