<svg width="115" height="77" viewBox="0 0 115 77" fill="none" xmlns="http://www.w3.org/2000/svg">
<path fill-rule="evenodd" clip-rule="evenodd" d="M26.9552 3.85763C26.9548 3.85746 26.9611 3.85464 26.9757 3.84972C26.9629 3.85535 26.9557 3.85781 26.9552 3.85763ZM27.0805 3.82035C27.152 3.80294 27.2523 3.78229 27.386 3.76051C27.7839 3.69569 28.3431 3.64208 29.0386 3.6023C30.4215 3.52321 32.2068 3.50591 34.0283 3.52551C37.7207 3.56524 41.3193 3.753 41.891 3.84053C42.7428 3.97094 43.5262 4.6296 43.8084 5.26167C43.8119 5.27847 43.8167 5.3038 43.8226 5.33907C43.8415 5.45253 43.8627 5.61488 43.8847 5.82965C43.9285 6.25732 43.9693 6.82798 44.0065 7.50367C44.0807 8.85144 44.1374 10.5536 44.18 12.2328C44.2224 13.9093 44.2505 15.5515 44.268 16.7754C44.2716 17.0312 44.2748 17.2687 44.2776 17.4842L44.2342 17.4862C43.906 17.4997 43.6261 17.4798 43.4233 17.4311C43.3283 17.4082 43.278 17.386 43.2568 17.375C42.4582 16.3708 41.6905 14.6295 41.0977 12.9837C40.8086 12.1812 40.5777 11.4494 40.4192 10.9183C40.3401 10.6533 40.2794 10.4396 40.2389 10.2936C40.2186 10.2207 40.2034 10.1648 40.1935 10.1279L40.1827 10.0873L40.1803 10.0782L40.1799 10.0768L39.5141 7.52405L34.4389 12.6626L22.3456 13.236L22.2892 14.6162L22.2873 14.661L22.2812 14.7953C22.2757 14.912 22.2674 15.08 22.2562 15.2834C22.2338 15.6913 22.2001 16.2363 22.1548 16.7923C22.109 17.353 22.0534 17.8996 21.9895 18.3214C21.7557 18.3541 21.4782 18.3807 21.1833 18.4013L21.1513 18.4035V8.13413L21.156 8.11219C21.1712 8.04365 21.2017 7.93511 21.259 7.81006C21.3665 7.57533 21.5657 7.28184 21.9699 7.05625C21.9703 7.05709 21.9782 7.05508 21.995 7.05082C22.0395 7.03955 22.1462 7.0125 22.3394 6.98054C22.6287 6.93268 22.9825 6.89396 23.3412 6.864C23.6956 6.8344 24.0335 6.81506 24.2843 6.80313C24.4091 6.79719 24.511 6.79315 24.5809 6.79062L24.6603 6.78791L24.6797 6.78732L24.684 6.78719L27.0805 3.82035ZM23.5886 3.81956C23.6135 3.76265 23.6398 3.7043 23.6674 3.64478C23.9596 3.01377 24.4558 2.11991 25.2137 1.4391C25.5317 1.15349 25.9067 1.0227 26.1107 0.959468C26.3599 0.882253 26.6344 0.825516 26.9065 0.781204C27.4539 0.692031 28.1313 0.631212 28.8683 0.589059C30.3504 0.50429 32.2135 0.487701 34.0604 0.507575C37.7049 0.54679 41.5235 0.731413 42.3423 0.856771C44.249 1.14866 45.9428 2.53043 46.6082 4.17331C46.7044 4.41094 46.7531 4.67078 46.7812 4.83916C46.8148 5.04045 46.8435 5.27263 46.8689 5.52017C46.9198 6.01709 46.9637 6.64205 47.0019 7.3367C47.0786 8.72962 47.1362 10.4671 47.179 12.1559C47.2218 13.8473 47.2501 15.5016 47.2677 16.7321C47.2764 17.3476 47.2826 17.8576 47.2865 18.214C47.2884 18.3922 47.2898 18.532 47.2908 18.6274L47.2919 18.7496L47.5226 24.4032L46.039 26.596C46.0218 26.7988 45.999 27.0623 45.9733 27.3445C45.919 27.9416 45.8463 28.6875 45.785 29.0903C45.5408 30.6945 45.2053 32.5705 44.3651 34.3646C43.6425 35.9076 42.586 37.1769 41.3816 38.3007C41.7076 39.2884 42.055 40.0214 42.4661 40.6091C42.9762 41.3384 43.639 41.9218 44.6497 42.4725C46.9873 43.7461 49.8926 44.658 52.6821 45.5336C53.0257 45.6415 53.3676 45.7488 53.7064 45.8562C55.2097 46.3325 56.6709 46.8172 57.864 47.3559C58.9914 47.8649 60.1904 48.5517 60.8361 49.5899C61.6264 50.8607 62.1249 52.0545 62.433 52.9705C62.617 52.8975 62.8005 52.825 62.9832 52.7531C64.9301 51.987 66.8004 51.2862 68.183 50.7772C68.8746 50.5226 69.4451 50.3157 69.843 50.1723C69.8864 50.1567 69.9296 50.1413 69.9727 50.126C70.2654 50.0218 70.5508 49.9202 70.8218 49.7625C71.0458 49.6322 71.321 49.457 71.605 49.2584C72.2211 48.8274 72.6956 48.4125 72.8694 48.1794C72.9825 48.0276 73.1356 47.6623 73.2552 46.9972C73.3003 46.7466 73.3361 46.4814 73.3654 46.2071L67.4228 44.9099L60.4841 43.2257L60.5172 42.004L60.5173 42.0029L60.5191 41.9403L60.5244 41.7609C60.5292 41.6052 60.5365 41.3797 60.5465 41.0986C60.5664 40.5366 60.597 39.7517 60.6399 38.8587C60.7253 37.0822 60.8608 34.8436 61.0613 33.0834C61.7761 26.8092 62.7793 19.3433 66.0949 13.4326C68.2664 9.56153 71.0635 5.95719 76.0901 4.80604C77.293 4.53056 78.2611 4.53424 79.1656 4.59842C79.4661 4.61974 79.7384 4.64487 80.0018 4.66918C80.5594 4.72064 81.0768 4.7684 81.7363 4.7684C82.2019 4.7684 82.6449 4.75264 83.0901 4.73681C84.0049 4.70428 84.9287 4.67143 86.0771 4.77435C86.2923 4.79362 86.5025 4.80912 86.711 4.82448C87.7054 4.89777 88.6609 4.96818 89.9193 5.43232C93.8372 6.87732 96.2127 10.4111 97.9116 13.431C100.799 18.5632 101.606 24.3616 102.357 29.7488L102.357 29.7547L102.359 29.7653C102.399 30.0495 102.438 30.3325 102.478 30.6143C102.789 32.8348 103.068 35.6719 103.269 37.9366C103.369 39.0727 103.45 40.0715 103.506 40.7866C103.534 41.1442 103.556 41.431 103.571 41.6287C103.579 41.7341 103.589 41.8388 103.599 41.9439L103.6 41.95C103.603 41.9798 103.65 43.1 103.65 43.1C103.65 43.1 102.603 43.4681 102.53 43.4905L102.527 43.4912L102.351 43.5441C102.236 43.5783 102.07 43.6274 101.864 43.6878C101.45 43.8085 100.873 43.9746 100.213 44.1563C98.905 44.5168 97.2348 44.95 95.8874 45.2073C94.5643 45.46 92.8463 45.6706 91.4881 45.8166C91.15 45.853 90.8314 45.8856 90.5432 45.9141C90.6513 46.7112 90.841 47.418 91.0856 47.7945C91.4102 48.2942 91.9876 48.7952 92.5779 49.2048C92.8581 49.3993 93.1131 49.554 93.2963 49.659C93.3874 49.7113 93.4594 49.7504 93.5062 49.7753L93.5164 49.7808L93.6167 49.8205L93.8129 49.8985L94.0993 50.0125C94.5157 50.1783 95.112 50.4165 95.8326 50.7061C97.2735 51.2853 99.2131 52.071 101.206 52.8961C104.113 54.1 107.091 55.4532 109.431 57.0847C111.744 58.6976 113.715 60.7768 114.102 63.5229C114.408 65.6951 114.49 68.9712 114.5 71.632C114.505 72.9777 114.492 74.1927 114.477 75.0712C114.47 75.5107 114.462 75.8664 114.457 76.1129C114.454 76.2362 114.451 76.3321 114.45 76.3976L114.448 76.4725L114.447 76.4972L114.447 76.4991C114.447 76.4991 114.447 76.4993 112.948 76.4553L111.694 76.4186L111.448 76.4114L111.448 76.4103L111.449 76.3885L111.451 76.3177C111.452 76.2551 111.455 76.1621 111.458 76.042C111.463 75.8018 111.471 75.453 111.478 75.0213C111.492 74.1575 111.505 72.9637 111.5 71.6435C111.49 68.9725 111.406 65.8883 111.132 63.9465C110.922 62.4567 109.801 61.0149 107.722 59.5654C105.67 58.1345 102.955 56.8841 100.064 55.687C98.084 54.8672 96.1546 54.0856 94.7195 53.5088C94.1463 53.2784 93.6522 53.0807 93.2656 52.9265L82.0786 64.2838L70.5939 53.1078C70.2275 53.2404 69.7589 53.411 69.2139 53.6116C67.8444 54.1157 65.9959 54.8084 64.0759 55.5639C62.1527 56.3206 60.173 57.1344 58.5355 57.8812C57.7161 58.2548 56.9976 58.6049 56.4216 58.917C55.8218 59.2419 55.4591 59.4822 55.2919 59.6267C53.6587 61.0387 52.7736 62.6481 52.6309 63.9058C52.5369 64.7346 52.5326 67.7882 52.56 70.7914C52.5733 72.2585 52.5934 73.6673 52.6102 74.7097C52.6186 75.2307 52.6261 75.66 52.6315 75.9588L52.6403 76.4251C52.6403 76.4251 52.6403 76.4252 51.1406 76.4553C49.6409 76.4855 49.6409 76.4849 49.6409 76.4849L49.632 76.014C49.6266 75.7134 49.619 75.282 49.6106 74.7585C49.5938 73.7117 49.5736 72.2954 49.5601 70.8191C49.5338 67.9354 49.5294 64.6287 49.6503 63.5636C49.9048 61.3198 51.3326 59.0702 53.3367 57.3377C53.762 56.97 54.364 56.6038 54.9991 56.2598C55.6578 55.9028 56.4439 55.5213 57.2969 55.1323C58.0306 54.7977 58.825 54.4524 59.6467 54.1068L59.6397 54.0848C59.3977 53.3335 58.9818 52.2986 58.2929 51.1907C58.1612 50.9791 57.7142 50.5964 56.6357 50.1094C55.6229 49.6522 54.3184 49.2144 52.8051 48.7349C52.4782 48.6313 52.1421 48.526 51.7988 48.4185L51.7944 48.4171L51.7916 48.4162L51.7894 48.4156L51.7894 48.4155C49.4815 47.6927 46.8488 46.8682 44.5156 45.7782C44.1656 46.167 43.7602 46.4936 43.3749 46.7613C42.4536 47.4016 41.2867 47.9526 40.0659 48.3993C37.6372 49.2881 34.6983 49.87 32.4491 49.8102C30.2114 49.7507 27.3969 49.0569 25.1239 48.1408C23.9831 47.6811 22.9051 47.1363 22.0716 46.5353C21.7587 46.3097 21.4557 46.0588 21.1903 45.7813C18.258 47.2337 14.9684 48.5605 12.2035 49.6628L11.6433 49.886L11.6429 49.8861C10.2715 50.4323 9.05732 50.9159 8.08157 51.3353C7.52911 51.5727 7.07528 51.7801 6.72638 51.9581C6.55255 52.0468 6.41607 52.1224 6.31289 52.1852C6.26189 52.2163 6.22327 52.2416 6.19514 52.2613C6.16637 52.2814 6.15441 52.2915 6.1545 52.2914C5.05321 53.2314 3.96488 54.9254 3.74489 57.6778C3.62529 59.1742 3.56257 62.8004 3.53115 66.1205C3.51558 67.7656 3.50779 69.3139 3.50389 70.4512C3.50195 71.0197 3.50097 71.4852 3.50049 71.8085L3.5 72.3116L2 72.3121C0.5 72.3121 0.5 72.312 0.5 72.3119L0.500489 71.804C0.500978 71.479 0.501956 71.0115 0.503911 70.4408C0.507819 69.2995 0.515638 67.7448 0.531283 66.0917C0.562291 62.8153 0.624433 59.0638 0.754544 57.4359C1.03399 53.9396 2.46334 51.484 4.21367 49.99C4.53445 49.7162 4.96312 49.4736 5.36978 49.2662C5.80336 49.0451 6.3254 48.808 6.90302 48.5598C7.91863 48.1233 9.17462 47.6231 10.5378 47.0802L10.5384 47.08L10.5385 47.0799L11.0983 46.8569C14.2605 45.5963 17.9363 44.1082 20.9768 42.5063L21.0249 42.4728C22.058 41.7547 23.5453 40.7208 24.2404 38.3177C24.042 38.1193 23.8132 37.8795 23.5717 37.6055C22.8644 36.8028 21.9677 35.6158 21.4641 34.2445C21.2995 33.7965 21.1267 33.3639 20.9534 32.93C20.498 31.79 20.0393 30.6419 19.72 29.1873C19.5908 28.599 19.469 27.8626 19.3818 27.2946C19.3375 27.0061 19.3008 26.7525 19.2752 26.5707L19.27 26.534L18.1513 24.3295V7.97582L18.1552 7.92172L19.6513 8.03006C18.1552 7.92172 18.1553 7.92099 18.1553 7.92025L18.1554 7.91874L18.1557 7.91562L18.1562 7.90891L18.1575 7.89372L18.1591 7.87572L18.161 7.85632C18.1639 7.82837 18.1679 7.79432 18.1734 7.75478C18.1844 7.67585 18.2015 7.57409 18.2281 7.45449C18.2809 7.21667 18.3729 6.89957 18.5341 6.54748C18.861 5.83338 19.4752 4.97484 20.5851 4.37845C20.9948 4.15832 21.515 4.05828 21.8527 4.00242C22.2542 3.936 22.6969 3.88933 23.093 3.85624C23.2648 3.84189 23.432 3.82976 23.5886 3.81956ZM38.7453 36.62C40.0639 35.4902 41.0456 34.3715 41.6512 33.0783C42.2924 31.7092 42.5797 30.2091 42.8196 28.6334C42.8644 28.3393 42.9292 27.6917 42.9858 27.0695C43.0131 26.7688 43.0372 26.4891 43.0545 26.2844L43.0689 26.1127L43.0748 26.0413L43.082 25.9538L43.0821 25.9526L43.1142 25.5552L44.4845 23.5299L44.3609 20.5016L44.3565 20.5018C43.8795 20.5214 43.2974 20.5039 42.7258 20.3664C42.1634 20.2312 41.4658 19.9437 40.9526 19.3084C39.7986 17.8799 38.882 15.6912 38.2772 14.0119C38.19 13.7699 38.1078 13.5341 38.0309 13.3076L35.745 15.6221L25.2115 16.1215C25.1929 16.4086 25.1706 16.7213 25.1447 17.0392C25.0969 17.625 25.0345 18.254 24.9548 18.7793C24.9153 19.0392 24.867 19.3054 24.8058 19.5414C24.7752 19.659 24.7349 19.7951 24.6805 19.9315C24.6346 20.0465 24.5386 20.2672 24.3582 20.4798C24.0389 20.8561 23.6235 21.0142 23.4529 21.0751C23.2236 21.1569 22.9814 21.2122 22.7666 21.2521C22.3317 21.3328 21.833 21.3813 21.3911 21.4122C21.3104 21.4178 21.2303 21.423 21.1513 21.4276V23.6037L22.1739 25.6188L22.2079 25.8749L22.2102 25.8918L22.2174 25.945C22.2238 25.9918 22.2333 26.0606 22.2454 26.1467C22.2697 26.3192 22.3046 26.5602 22.3466 26.8338C22.432 27.3899 22.542 28.0471 22.6494 28.5365C22.9126 29.7353 23.2409 30.5558 23.6562 31.5937L23.6563 31.5937C23.8449 32.0652 24.0515 32.5815 24.2781 33.1984C24.5946 34.0602 25.2134 34.9188 25.8167 35.6035C26.1092 35.9354 26.379 36.2053 26.5737 36.3902C26.6707 36.4824 26.748 36.5525 26.7988 36.5976C26.8242 36.6202 26.8429 36.6365 26.854 36.6461L26.8551 36.647L26.872 36.6605C26.8949 36.6785 26.931 36.7069 26.9796 36.744C27.0767 36.8184 27.2227 36.9278 27.4093 37.0606C27.784 37.327 28.3146 37.6821 28.936 38.0355C30.2324 38.7729 31.7066 39.3765 32.927 39.3765C33.7897 39.3765 34.7789 39.0479 35.8466 38.4865C36.8824 37.942 37.8635 37.2496 38.7453 36.62ZM26.7471 40.2379C25.9786 42.1175 24.8355 43.318 23.865 44.1148C24.4309 44.5143 25.2513 44.9409 26.2395 45.3392C28.2787 46.161 30.7367 46.7455 32.5284 46.7932C34.3088 46.8405 36.8666 46.3585 39.0404 45.563C40.121 45.1676 41.0319 44.7214 41.6698 44.2781C41.6874 44.2659 41.7046 44.2538 41.7214 44.2418L41.7443 44.2255L41.7832 44.1972C41.0987 43.6683 40.5144 43.0633 40.0126 42.3459C39.5585 41.6965 39.1901 40.9806 38.8746 40.1904C38.3611 40.5249 37.8095 40.8599 37.2361 41.1614C35.9834 41.82 34.4892 42.3946 32.927 42.3946C30.9024 42.3946 28.8642 41.4618 27.4594 40.6627C27.2077 40.5195 26.9693 40.3765 26.7471 40.2379ZM22.4499 18.2307L22.4407 18.2337C22.4683 18.2215 22.4748 18.2218 22.4499 18.2307ZM12.4102 72.3121V65.6302H15.4102V72.3121H12.4102ZM78.9546 7.60905C78.2269 7.55742 77.5759 7.5611 76.756 7.74886C72.9928 8.61068 70.7539 11.268 68.7076 14.9159C65.7334 20.2179 64.7646 27.0826 64.0418 33.427C63.8531 35.0837 63.7212 37.2402 63.6364 39.0044C63.6023 39.7145 63.5761 40.3554 63.5569 40.8668L68.0928 41.9678L73.63 43.1765L73.6359 43.1034C72.5721 41.6041 71.0163 38.7893 70.1169 35.1565C69.3063 31.8826 69.1637 27.9568 69.4723 24.198L69.8918 23.1751C69.9865 22.9631 70.1259 22.6618 70.3151 22.3412C70.7956 21.5272 71.6157 20.5509 73.0629 19.9855C74.3697 19.4748 75.7995 19.3736 76.8264 19.3784C76.87 19.3786 76.9131 19.379 76.9556 19.3796V16.8184L79.923 16.5144L79.9248 16.514L79.9257 16.5185L79.93 16.5389L79.937 16.572L79.9484 16.6249C79.965 16.7014 79.99 16.8145 80.0229 16.9562C80.0888 17.2402 80.1854 17.6357 80.3074 18.0796C80.5596 18.997 80.8911 20.0103 81.2461 20.6913C82.3826 22.8718 83.3447 23.9352 85.3912 25.3216C86.6113 26.1481 88.5722 26.7126 90.3912 27.0624C91.2708 27.2316 92.0641 27.3411 92.6372 27.4082C92.9231 27.4416 93.1525 27.4643 93.3083 27.4785C93.3862 27.4856 93.4455 27.4905 93.4843 27.4936L93.5267 27.4969L93.5358 27.4976L93.5368 27.4977L95.0099 27.6006L94.9303 29.0844L94.9277 29.1305L94.9263 29.1554L94.9204 29.2519C94.9139 29.3564 94.904 29.5067 94.8904 29.6931C94.8632 30.0654 94.821 30.5845 94.7607 31.1737C94.6422 32.3301 94.446 33.8377 94.1345 35.0318C93.6578 36.8591 92.6497 38.955 91.8113 40.5269C91.3841 41.3279 90.9851 42.0219 90.6926 42.5162C90.6094 42.6569 90.5346 42.7817 90.4701 42.8885C90.6898 42.8663 90.9243 42.8419 91.1694 42.8156C92.5154 42.6709 94.1316 42.4706 95.328 42.2421C96.552 42.0084 98.1268 41.6019 99.4207 41.2454C99.8208 41.1352 100.19 41.0308 100.509 40.9394C100.454 40.2387 100.376 39.2838 100.281 38.204C100.081 35.9489 99.8075 33.176 99.507 31.0365L99.4094 30.3395C98.6358 24.8072 97.8987 19.5356 95.3007 14.9175C93.6257 11.94 91.7036 9.30497 88.8867 8.26601C88.0474 7.95646 87.5325 7.91682 86.5961 7.84473C86.3641 7.82686 86.1061 7.807 85.811 7.78055C84.8327 7.69289 84.2139 7.71706 83.4331 7.74756C82.9638 7.76589 82.4359 7.78651 81.7363 7.78651C80.9344 7.78651 80.1969 7.71893 79.5868 7.66304C79.3568 7.64197 79.1449 7.62256 78.9546 7.60905ZM87.7665 41.5505L87.7885 41.5146C87.8654 41.3893 87.9773 41.2048 88.1148 40.9724C88.3902 40.507 88.7663 39.8528 89.1678 39.1C89.987 37.5641 90.8509 35.7295 91.2328 34.2657C91.4826 33.3079 91.6609 31.9927 91.7765 30.8643C91.7949 30.6847 91.8115 30.5119 91.8264 30.3485C91.2634 30.2747 90.5755 30.1706 89.828 30.0269C87.952 29.6661 85.4732 29.0157 83.7155 27.825C81.4264 26.2743 80.1367 24.9163 78.8545 22.5884L78.2284 22.4907L78.2273 22.4906L78.2262 22.4904L78.2139 22.4886C78.2001 22.4867 78.1767 22.4834 78.1446 22.4793C78.0802 22.4711 77.9811 22.4594 77.8538 22.4474C77.598 22.4233 77.2342 22.3985 76.8124 22.3965C75.9402 22.3924 74.9452 22.4877 74.149 22.7988C73.4933 23.055 73.1365 23.4724 72.8947 23.8821C72.7691 24.095 72.6802 24.2952 72.5823 24.5156L72.5695 24.5445L72.5693 24.5449C72.536 24.6199 72.4873 24.7296 72.4317 24.8384C72.1823 28.261 72.3473 31.6779 73.028 34.4271C73.9272 38.0589 75.5604 40.7173 76.3484 41.7128C76.882 42.387 77.7749 43.2398 78.8229 43.9141C79.8862 44.5983 80.9593 45.0029 81.8789 45.0029C82.3299 45.0029 82.9229 44.847 83.6284 44.5177C84.3187 44.1955 85.0231 43.7518 85.6705 43.2846C86.3138 42.8205 86.8735 42.353 87.2731 42.0005C87.4721 41.825 87.6293 41.6798 87.735 41.5802L87.7665 41.5505ZM87.4984 45.6796L87.419 45.7371C86.6798 46.2705 85.8084 46.8273 84.891 47.2555C83.9888 47.6766 82.9421 48.021 81.8789 48.021C80.1598 48.021 78.5173 47.3001 77.2065 46.4567C76.931 46.2794 76.6635 46.0925 76.406 45.8992C76.3645 46.4314 76.3044 46.9946 76.2073 47.5345C76.0662 48.3194 75.8145 49.2589 75.2696 49.9899C74.8114 50.6047 74.0494 51.2163 73.4231 51.6619L82.034 60.0414L90.5156 51.4306C89.8714 50.9478 89.113 50.2747 88.5744 49.4458C87.9319 48.4569 87.6788 47.1457 87.5633 46.2665C87.5361 46.0592 87.5149 45.8617 87.4984 45.6796ZM89.0391 69.4964H96.676V73.5451H89.0391V69.4964ZM87.0391 75.5572V67.4844H98.676V75.5572H87.0391ZM86.7824 39.7572C86.4933 40.2237 86.0453 40.6961 85.3114 41.164C84.4842 41.6915 83.345 41.9642 82.2393 41.882C81.1188 41.7986 79.9099 41.3374 79.0938 40.2471L80.6915 39.0368C81.0737 39.5474 81.6789 39.8227 82.3868 39.8754C83.1094 39.9291 83.8127 39.7375 84.2407 39.4646C84.7621 39.1321 84.9788 38.8645 85.0852 38.6927C85.1414 38.602 85.1811 38.515 85.2195 38.4174L85.2283 38.3942L85.2424 38.3564L85.2425 38.3563C85.2754 38.2679 85.3317 38.1169 85.3741 38.0234L87.1935 38.8588C87.177 38.8952 87.1695 38.9161 87.156 38.9538C87.1422 38.9923 87.1221 39.0484 87.0796 39.1567C87.0146 39.3221 86.9239 39.5288 86.7824 39.7572ZM34.9599 35.4861C36.3724 34.5855 37.1762 33.452 37.4382 32.8744L35.6187 32.0391C35.5241 32.2476 34.9872 33.0865 33.8892 33.7867C33.633 33.9501 33.1718 33.9802 32.5431 33.7967C32.2557 33.7128 31.9853 33.5985 31.7689 33.4882C31.6614 33.4334 31.5727 33.3824 31.5067 33.3408C31.4523 33.3065 31.4249 33.2859 31.4179 33.2807C31.4167 33.2797 31.4161 33.2793 31.4161 33.2793C31.4162 33.2794 31.4167 33.2798 31.4176 33.2806L30.1035 34.7975C30.4327 35.0861 31.1778 35.4932 31.9858 35.7291C32.7803 35.961 33.961 36.1231 34.9599 35.4861Z" fill="#041862"/>
</svg>
