<svg width="114" height="75" viewBox="0 0 114 75" fill="none" xmlns="http://www.w3.org/2000/svg">
<path fill-rule="evenodd" clip-rule="evenodd" d="M3 0.5C1.61929 0.5 0.5 1.61929 0.5 3V45.4383C0.5 46.819 1.61929 47.9383 3 47.9383H61.9345C63.3152 47.9383 64.4345 46.819 64.4345 45.4383V3C64.4345 1.61929 63.3152 0.5 61.9345 0.5H3ZM3.5 44.9383V3.5H61.4345V44.9383H3.5ZM73.5695 7.74537C72.1888 7.74537 71.0695 8.86466 71.0695 10.2454V58.946H51.4966C49.795 54.9683 45.8533 52.1797 41.258 52.1797C36.6628 52.1797 32.7211 54.9683 31.0195 58.946H10.9055V61.946H30.2091C30.1523 62.4028 30.123 62.8681 30.123 63.3402C30.123 69.5002 35.1046 74.5007 41.258 74.5007C47.4115 74.5007 52.393 69.5002 52.393 63.3402C52.393 62.8681 52.3638 62.4028 52.307 61.946H79.3439C79.2871 62.4028 79.2578 62.8681 79.2578 63.3402C79.2578 69.5002 84.2394 74.5007 90.3928 74.5007C96.5462 74.5007 101.528 69.5002 101.528 63.3402C101.528 62.8681 101.499 62.4028 101.442 61.946H114V58.946H108.996V31.8123C108.996 31.2492 108.806 30.7025 108.457 30.2609L91.389 8.69396C90.9149 8.0948 90.1927 7.74537 89.4286 7.74537H73.5695ZM100.631 58.946H105.996V31.9862L89.1867 10.7454H74.0695V58.946H80.1543C81.8559 54.9683 85.7976 52.1797 90.3928 52.1797C94.988 52.1797 98.9297 54.9683 100.631 58.946ZM42.274 18.8719V16.8511L50.7251 24.085L42.274 31.5263V29.3869C42.274 28.0061 41.1547 26.8869 39.774 26.8869H26.7777L26.8409 21.3719H39.774C41.1547 21.3719 42.274 20.2526 42.274 18.8719ZM43.3997 13.8657C41.7777 12.4773 39.274 13.6298 39.274 15.7649V18.3719H26.3466C24.9771 18.3719 23.8625 19.4738 23.8468 20.8432L23.7721 27.3582C23.7561 28.75 24.88 29.8869 26.2719 29.8869H39.274V32.6328C39.274 34.7843 41.8113 35.9309 43.4261 34.5091L53.1399 25.956C54.2809 24.9513 54.2685 23.1691 53.1135 22.1804L43.3997 13.8657ZM81.7775 28.0324V19.9228H86.2371L91.8636 28.0324H81.7775ZM81.2775 16.9228C79.8968 16.9228 78.7775 18.0421 78.7775 19.4228V28.5324C78.7775 29.9131 79.8968 31.0324 81.2775 31.0324H92.8191C94.8369 31.0324 96.0233 28.7652 94.8731 27.1073L88.5527 17.9977C88.0856 17.3244 87.3182 16.9228 86.4987 16.9228H81.2775ZM41.258 55.1797C36.7689 55.1797 33.123 58.8295 33.123 63.3402C33.123 67.8508 36.7689 71.5007 41.258 71.5007C45.7471 71.5007 49.393 67.8508 49.393 63.3402C49.393 58.8295 45.7471 55.1797 41.258 55.1797ZM90.3928 55.1797C85.9037 55.1797 82.2578 58.8295 82.2578 63.3402C82.2578 67.8508 85.9037 71.5007 90.3928 71.5007C94.8819 71.5007 98.5278 67.8508 98.5278 63.3402C98.5278 58.8295 94.8819 55.1797 90.3928 55.1797Z" fill="#041862"/>
</svg>
