<svg width="99" height="92" viewBox="0 0 99 92" fill="none" xmlns="http://www.w3.org/2000/svg">
<path id="Vector 275 (Stroke)" fill-rule="evenodd" clip-rule="evenodd" d="M34.455 3.34002L27.996 12.8043H79.4897L74.1044 3.34002H34.455ZM80.4525 15.4803H26.801V40.4311C28.4485 41.0239 29.7175 41.9021 30.6692 42.8995C32.3661 44.6779 32.9868 46.7707 32.9868 48.0361V55.13H39.0604C39.7586 55.13 40.3394 55.6672 40.394 56.3634L41.7947 74.2322H48.7195V46.8921C48.7195 46.5998 48.8153 46.3155 48.992 46.0827L54.1473 39.2948L57.6953 34.4163C57.958 34.055 58.3777 33.8414 58.8242 33.8414H80.4525V15.4803ZM83.1279 33.8414V14.1423C83.1279 13.9102 83.0675 13.6822 82.9528 13.4805L76.0616 1.36968C75.8134 0.933521 75.3503 0.664062 74.8484 0.664062H33.7792C33.3179 0.664062 32.8864 0.892022 32.6263 1.27314L24.3585 13.388C24.2067 13.6103 24.1256 13.8732 24.1256 14.1423V39.7884C23.4162 39.6918 22.6569 39.64 21.8452 39.64C17.6109 39.64 14.8522 40.9478 13.1004 42.7311C11.3811 44.4814 10.7798 46.5398 10.5503 47.7955C10.4829 48.1644 10.387 49.3932 10.2829 50.8685C10.1958 52.1034 10.0977 53.6008 10.0008 55.13H4.97476C4.25477 55.13 3.65286 55.6777 3.58501 56.3947L0.678209 87.1128C0.600667 87.9322 1.24503 88.6406 2.06795 88.6406H35.3839C35.6372 88.6406 35.8853 88.5686 36.0994 88.4332L39.6315 86.197L40.6923 86.6799C41.6601 87.1204 42.7453 86.3602 42.6622 85.2999L42.0044 76.9082H48.7195V90.2678C48.7195 91.0389 49.3445 91.6641 50.1155 91.6641H97.2759C98.0469 91.6641 98.6719 91.0389 98.6719 90.2678V46.8921C98.6719 46.552 98.5424 46.2247 98.3098 45.9767L91.9332 39.1777C91.9216 39.1653 91.9097 39.1531 91.8975 39.1411L86.9394 34.2441C86.6782 33.986 86.3258 33.8414 85.9586 33.8414H83.1279ZM9.83404 57.806C9.75181 59.1456 9.67628 60.4032 9.61632 61.4114C9.5749 62.1078 9.54091 62.6853 9.51727 63.0887L9.48036 63.7212C9.48035 63.7213 9.48032 63.7219 10.8158 63.7993C12.1512 63.8767 12.1512 63.8766 12.1513 63.8765L12.1881 63.2453C12.2117 62.8425 12.2456 62.2658 12.287 61.5703C12.3493 60.5222 12.4285 59.2046 12.5145 57.806H30.3114V64.3873C30.3114 64.3874 30.3114 64.3874 31.6491 64.3874C32.9868 64.3874 32.9868 64.3874 32.9868 64.3873V57.806H37.5537L34.1963 85.9646H3.47422L6.13883 57.806H9.83404ZM37.0453 84.6674L38.7852 83.5659C39.0984 83.3676 39.4736 83.3042 39.8282 83.3812L38.7852 70.0751L37.0453 84.6674ZM30.3114 55.13V48.0361C30.3114 47.4781 29.9692 46.0418 28.7337 44.747C28.2521 44.2422 27.6219 43.7465 26.801 43.3357V55.13H30.3114ZM24.1256 55.13H12.6816C12.7747 53.6636 12.8684 52.2378 12.9517 51.0569C13.0055 50.2944 13.0547 49.6383 13.0964 49.1408C13.1173 48.8917 13.1359 48.6871 13.152 48.5311C13.16 48.4531 13.167 48.3911 13.1729 48.344C13.1793 48.2929 13.1825 48.2743 13.1821 48.2767C13.3611 47.2973 13.8103 45.8266 15.0088 44.6066C16.1748 43.4195 18.2013 42.3159 21.8452 42.3159C22.6852 42.3159 23.4427 42.38 24.1256 42.4941V55.13ZM45.538 22.259H31.6491V19.5831H45.538V22.259ZM41.3363 27.0233H31.6491V24.3473H41.3363V27.0233ZM59.4757 36.5173L56.3027 40.8802L56.2861 40.9025L52.7533 45.5541H66.2496L68.6221 36.5173H59.4757ZM71.3882 36.5173L69.0158 45.5541H78.0582L75.6435 36.5173H71.3882ZM78.4128 36.5173L80.8275 45.5541H94.2452L89.9995 41.0272L85.4333 36.5173H78.4128ZM95.9965 48.23H81.1381V57.0653C81.1381 58.0314 80.1809 58.7055 79.2716 58.3798L73.5409 56.3275L67.8103 58.3798C66.9009 58.7055 65.9437 58.0313 65.9437 57.0653V48.23H51.395V88.9881H95.9965V48.23ZM68.6191 48.23V55.2478L73.0704 53.6537C73.3746 53.5448 73.7072 53.5448 74.0115 53.6537L78.4627 55.2478V48.23H68.6191Z" fill="#041862"/>
</svg>
