<svg width="114" height="83" viewBox="0 0 114 83" fill="none" xmlns="http://www.w3.org/2000/svg">
<path fill-rule="evenodd" clip-rule="evenodd" d="M98.6513 56.1408C107.126 56.1408 114 49.2748 114 40.8009C114 32.3269 107.126 25.4609 98.6513 25.4609C90.1765 25.4609 83.3027 32.3269 83.3027 40.8009C83.3027 41.3297 83.3295 41.8522 83.3818 42.3672L43.5943 42.3672C42.3172 42.3693 41.198 42.8269 40.4009 43.659C39.6156 44.4789 39.2365 45.5642 39.2365 46.6663V48.8068L39.2365 76.4685L39.2364 77.1594C39.2363 77.5818 39.2363 78.1583 39.2365 78.7748C39.2374 81.1207 41.353 82.4971 43.5967 82.4971H90.3992C92.3495 82.4971 94.4127 81.0801 94.4127 78.7743V55.5483C95.759 55.9341 97.181 56.1408 98.6513 56.1408ZM91.4987 54.3767C87.9408 52.5005 85.2095 49.2681 83.9942 45.3672H45.763L43.5991 45.3672C43.0563 45.3681 42.7454 45.5484 42.5674 45.7342C42.3776 45.9323 42.2365 46.2461 42.2365 46.6673V48.8069L42.2365 76.4705L42.2364 77.1598C42.2363 77.5819 42.2363 78.1579 42.2365 78.7737C42.2366 78.9008 42.2843 79.0398 42.4582 79.1799C42.6445 79.3301 43.0094 79.4971 43.5967 79.4971H90.3992C90.7227 79.4971 91.0009 79.381 91.1805 79.2265C91.3511 79.0796 91.4127 78.923 91.4127 78.7743L91.4987 54.3767ZM111 40.8009C111 47.616 105.471 53.1408 98.6513 53.1408C91.8314 53.1408 86.3027 47.616 86.3027 40.8009C86.3027 33.9857 91.8314 28.4609 98.6513 28.4609C105.471 28.4609 111 33.9857 111 40.8009ZM99.612 33.9062L107.118 35.335L104.161 37.5869C104.244 37.7041 104.325 37.8213 104.402 37.9377C104.692 38.3796 104.96 38.8649 105.099 39.3373C106.297 43.4069 103.373 46.9788 99.4619 47.4674C97.0782 47.7652 95.0929 46.8391 93.8427 45.2559C92.6099 43.6947 92.128 41.5464 92.5774 39.4135C92.7795 38.4538 93.3415 37.5373 93.8826 36.8272C94.4356 36.1013 95.0427 35.493 95.4506 35.141L96.7573 36.6551C96.4465 36.9233 95.9364 37.4315 95.4735 38.0392C94.9985 38.6626 94.6458 39.2968 94.5344 39.8257C94.1982 41.4217 94.5742 42.9551 95.4123 44.0164C96.233 45.0557 97.5315 45.693 99.214 45.4828C102.104 45.1218 103.975 42.6008 103.181 39.9019C103.124 39.7084 102.98 39.4158 102.73 39.0362C102.679 38.9585 102.625 38.8794 102.569 38.7991L99.612 41.0502V33.9062ZM47.584 76.9609H55.2283V73.9609H47.584V76.9609ZM49.3516 53.2656V57.3756H55.8382V53.2656H49.3516ZM46.3516 52.5556C46.3516 51.2909 47.3768 50.2656 48.6416 50.2656H56.5482C57.8129 50.2656 58.8382 51.2909 58.8382 52.5556V58.0856C58.8382 59.3504 57.8129 60.3756 56.5482 60.3756H48.6416C47.3768 60.3756 46.3516 59.3504 46.3516 58.0856V52.5556ZM47.0605 67.4844H84.6117V64.4844H47.0605V67.4844Z" fill="#041862"/>
<path fill-rule="evenodd" clip-rule="evenodd" d="M8.16576 1.3339C8.43543 0.821103 8.96709 0.5 9.54647 0.5H45.4483C45.9686 0.5 46.4547 0.759433 46.7443 1.19173L50.7631 7.19042L56 15.7382V42.7878H53V17.6612H36.3331V28.4423C36.3331 29.5553 35.201 30.3102 34.1735 29.8824L28.3741 27.4677L22.5748 29.8824C21.5473 30.3102 20.4152 29.5553 20.4152 28.4423V17.6612H3.5V60.3803H40.737V63.3803H2.06C1.19841 63.3803 0.5 62.6819 0.5 61.8203V15.7859L4.98051 7.39085L8.16576 1.3339ZM4.50082 14.6612H20.632L22.3819 3.5H10.4162L7.62933 8.79936L4.50082 14.6612ZM25.4186 3.5L23.6687 14.6612H32.958L30.4458 3.5H25.4186ZM33.5208 3.5L36.033 14.6612H51.8219L48.2369 8.80958L44.6797 3.5H33.5208ZM33.3331 17.6612H23.4152V26.2828L27.7745 24.4677C28.1583 24.3079 28.59 24.3079 28.9738 24.4677L33.3331 26.2828V17.6612Z" fill="#041862"/>
</svg>
