<svg width="33" height="32" viewBox="0 0 33 32" fill="none" xmlns="http://www.w3.org/2000/svg">
<g id="&#208;&#144;&#208;&#186;&#208;&#186;&#208;&#176;&#209;&#131;&#208;&#189;&#209;&#130;">
<g id="Vector">
<path fill-rule="evenodd" clip-rule="evenodd" d="M16.5 29C23.6797 29 29.5 23.1797 29.5 16C29.5 8.8203 23.6797 3 16.5 3C9.3203 3 3.5 8.8203 3.5 16C3.5 23.1797 9.3203 29 16.5 29ZM16.5 31C24.7843 31 31.5 24.2843 31.5 16C31.5 7.71573 24.7843 1 16.5 1C8.21573 1 1.5 7.71573 1.5 16C1.5 24.2843 8.21573 31 16.5 31Z" fill="#041862"/>
<path fill-rule="evenodd" clip-rule="evenodd" d="M16.4073 7.22656C14.8684 7.22582 13.2794 8.2148 12.752 9.5339C12.1648 11.0023 12.3823 12.9315 13.1363 14.4538C13.2884 14.7609 13.5477 15.0438 13.9269 15.4576C13.9956 15.5325 14.0682 15.6117 14.1448 15.6961C14.5714 16.1663 15.1559 16.8379 15.3469 17.7058C15.6079 18.891 15.0629 20.1095 14.0624 20.7277C13.2433 21.2337 12.2581 21.6348 11.3607 22.0001C11.3204 22.0165 11.2804 22.0328 11.2405 22.049C10.2702 22.4444 9.39985 22.8074 8.70446 23.2528C7.97021 23.723 7.5807 24.7608 7.66732 25.8336C7.71177 26.3841 7.30154 26.8664 6.75105 26.9108C6.20055 26.9553 5.71826 26.545 5.67381 25.9945C5.55137 24.478 6.05524 22.5745 7.6258 21.5686C8.50236 21.0072 9.54816 20.5789 10.4858 20.1968L10.5279 20.1797C11.4896 19.7879 12.3374 19.4425 13.0112 19.0262C13.3071 18.8434 13.4673 18.4701 13.3937 18.1358C13.3302 17.8474 13.1088 17.5307 12.6637 17.0401C12.6112 16.9823 12.554 16.9206 12.4935 16.8553C12.1252 16.4579 11.6352 15.9292 11.3441 15.3415C10.4038 13.4431 10.0471 10.9117 10.8949 8.79133C11.7671 6.6101 14.1672 5.22548 16.4082 5.22656C18.6829 5.22766 21.2353 6.25335 22.082 8.85293C22.7269 10.8329 22.4532 13.466 21.6267 15.3072C21.3363 15.954 20.8482 16.501 20.4817 16.9116C20.4402 16.9581 20.4003 17.0029 20.3624 17.0458C19.9342 17.5309 19.6884 17.8586 19.592 18.1957C19.5194 18.4498 19.5437 18.6012 19.5776 18.6896C19.6115 18.7777 19.6915 18.8986 19.899 19.0274C20.5622 19.4393 21.3643 19.7849 22.265 20.173C22.3276 20.1999 22.3906 20.2271 22.454 20.2545C23.3933 20.6598 24.4303 21.1171 25.3088 21.7198C26.7422 22.7032 27.3433 24.3896 27.3433 25.9141C27.3433 26.4663 26.8956 26.9141 26.3433 26.9141C25.791 26.9141 25.3433 26.4663 25.3433 25.9141C25.3433 24.8501 24.9215 23.8796 24.1773 23.369C23.4829 22.8925 22.6212 22.5049 21.6616 22.0908C21.5885 22.0593 21.5148 22.0276 21.4406 21.9956C20.5779 21.6245 19.6405 21.2212 18.8439 20.7265C18.3397 20.4134 17.9293 19.9761 17.7106 19.4066C17.492 18.8374 17.5016 18.2317 17.6691 17.6459C17.9052 16.8199 18.4554 16.184 18.863 15.7222C18.895 15.6859 18.9263 15.6506 18.9569 15.616C19.3679 15.1513 19.6451 14.8379 19.8021 14.4882C20.457 13.0291 20.6488 10.9107 20.1803 9.4723C19.7057 8.01511 18.2077 7.22743 16.4073 7.22656Z" fill="#041862"/>
</g>
</g>
</svg>
