<svg width="32" height="32" viewBox="0 0 32 32" fill="none" xmlns="http://www.w3.org/2000/svg">
<path fill-rule="evenodd" clip-rule="evenodd" d="M27.581 22.2242C27.0868 22.9428 26.1887 23.023 25.575 22.4033L15.2887 12.0159C14.675 11.3961 14.5781 10.3112 15.0723 9.5926C15.5665 8.874 16.4646 8.79385 17.0782 9.41357L27.3645 19.801C27.9782 20.4207 28.0751 21.5056 27.581 22.2242Z" fill="#041862"/>
<path fill-rule="evenodd" clip-rule="evenodd" d="M4.51572 22.2242C5.00989 22.9428 5.90799 23.023 6.52169 22.4033L16.808 12.0159C17.4217 11.3961 17.5186 10.3112 17.0244 9.5926C16.5302 8.874 15.6321 8.79385 15.0184 9.41357L4.73213 19.801C4.11844 20.4207 4.02155 21.5056 4.51572 22.2242Z" fill="#041862"/>
</svg>
