<svg width="24" height="24" viewBox="0 0 24 24" fill="none" xmlns="http://www.w3.org/2000/svg">
<path fill-rule="evenodd" clip-rule="evenodd" d="M10.0442 17.6324C10.4201 17.2271 10.3957 16.5944 9.98956 16.2193L5.43007 12.0072L9.99879 7.67836C10.4001 7.2981 10.4166 6.66515 10.0356 6.26462C9.65458 5.86409 9.02038 5.84765 8.61905 6.2279L2.5 12.0257L8.62828 17.687C9.03439 18.0622 9.66834 18.0377 10.0442 17.6324Z" fill="#041862"/>
<path fill-rule="evenodd" clip-rule="evenodd" d="M22 12C22 11.4477 21.5514 11 20.998 11H4.96637C4.41299 11 3.96439 11.4477 3.96439 12C3.96439 12.5523 4.41299 13 4.96637 13H20.998C21.5514 13 22 12.5523 22 12Z" fill="#041862"/>
</svg>
