<svg width="24" height="24" viewBox="0 0 24 24" fill="none" xmlns="http://www.w3.org/2000/svg">
<path fill-rule="evenodd" clip-rule="evenodd" d="M9.91077 16.7826C9.43323 16.4284 9.29392 15.8765 9.59961 15.55L14.5461 10.2663C14.8518 9.93973 15.4867 9.96218 15.9642 10.3164C16.4418 10.6707 16.5811 11.2225 16.2754 11.5491L11.3289 16.8328C11.0232 17.1593 10.3883 17.1369 9.91077 16.7826Z" fill="#041862"/>
<path fill-rule="evenodd" clip-rule="evenodd" d="M9.91077 5.34359C9.43323 5.69783 9.29392 6.2497 9.59962 6.57624L14.5461 11.86C14.8518 12.1865 15.4867 12.164 15.9642 11.8098C16.4418 11.4556 16.5811 10.9037 16.2754 10.5772L11.3289 5.29344C11.0232 4.9669 10.3883 4.98936 9.91077 5.34359Z" fill="#041862"/>
</svg>
