<svg width="32" height="32" viewBox="0 0 32 32" fill="none" xmlns="http://www.w3.org/2000/svg">
<path fill-rule="evenodd" clip-rule="evenodd" d="M19.0337 24.7026C18.6518 24.3096 18.6558 23.6764 19.0426 23.2884L26.2166 16.0923L19.0338 8.70264C18.6518 8.30967 18.6557 7.67652 19.0425 7.28846C19.4294 6.9004 20.0526 6.90438 20.4345 7.29735L29.0008 16.1102L20.4257 24.7116C20.0389 25.0996 19.4157 25.0956 19.0337 24.7026Z" fill="#041862"/>
<path fill-rule="evenodd" clip-rule="evenodd" d="M3 16C3 15.4477 3.44069 15 3.98432 15H26.6236C27.1672 15 27.6079 15.4477 27.6079 16C27.6079 16.5523 27.1672 17 26.6236 17H3.98432C3.44069 17 3 16.5523 3 16Z" fill="#041862"/>
</svg>
