<svg width="32" height="32" viewBox="0 0 32 32" fill="none" xmlns="http://www.w3.org/2000/svg">
<g id="&#208;&#154;&#208;&#190;&#209;&#128;&#208;&#183;&#208;&#184;&#208;&#189;&#208;&#176;">
<g id="Vector">
<path fill-rule="evenodd" clip-rule="evenodd" d="M1.13726 2.99479C0.85815 3.47136 1.01822 4.08395 1.49479 4.36306L3.95063 5.80136L7.45628 21.2307V24.5002C7.45628 25.0524 7.90399 25.5002 8.45628 25.5002H25.0002C25.5524 25.5002 26.0002 25.0524 26.0002 24.5002C26.0002 23.9479 25.5524 23.5002 25.0002 23.5002H9.45627V21.1185C9.45627 21.044 9.44794 20.9697 9.43142 20.897L5.80494 4.93582C5.74371 4.66631 5.57366 4.43416 5.33517 4.29448L2.50553 2.63726C2.02897 2.35815 1.41637 2.51822 1.13726 2.99479Z" fill="#041862"/>
<path fill-rule="evenodd" clip-rule="evenodd" d="M30.789 7.53379C30.5995 7.29062 30.3084 7.14844 30.0002 7.14844H5.46309C5.15989 7.14844 4.87307 7.286 4.68327 7.52244C4.49347 7.75888 4.42119 8.06866 4.48675 8.36469L7.60119 22.426C7.71416 22.936 8.20064 23.2731 8.71785 23.1998L27.2585 20.5723C27.6607 20.5153 27.9885 20.2206 28.0878 19.8266L30.9698 8.39285C31.0452 8.09393 30.9784 7.77696 30.789 7.53379ZM28.7168 9.14844L26.3127 18.6864L9.3537 21.0897L6.70882 9.14844H28.7168Z" fill="#041862"/>
<path fill-rule="evenodd" clip-rule="evenodd" d="M5.81852 11.875C5.81852 11.3227 6.26624 10.875 6.81852 10.875H22.7746C23.3269 10.875 23.7746 11.3227 23.7746 11.875C23.7746 12.4273 23.3269 12.875 22.7746 12.875H6.81852C6.26624 12.875 5.81852 12.4273 5.81852 11.875Z" fill="#041862"/>
<path fill-rule="evenodd" clip-rule="evenodd" d="M25.0002 25.5002C24.4479 25.5002 24.0002 25.9477 24.0002 26.5C24.0002 27.0523 24.4479 27.5 25.0002 27.5C25.5524 27.5 26.0002 27.0523 26.0002 26.5C26.0002 25.9477 25.5524 25.5002 25.0002 25.5002ZM22.0002 26.5C22.0002 24.8431 23.3433 23.5002 25.0002 23.5002C26.657 23.5002 28.0002 24.8431 28.0002 26.5C28.0002 28.1569 26.657 29.5 25.0002 29.5C23.3433 29.5 22.0002 28.1569 22.0002 26.5Z" fill="#041862"/>
<path fill-rule="evenodd" clip-rule="evenodd" d="M10.0002 25.5C9.44788 25.5 9.00016 25.9477 9.00016 26.5C9.00016 27.0523 9.44788 27.5 10.0002 27.5C10.5524 27.5 11.0002 27.0523 11.0002 26.5C11.0002 25.9477 10.5524 25.5 10.0002 25.5ZM7.00016 26.5C7.00016 24.8431 8.34331 23.5 10.0002 23.5C11.657 23.5 13.0002 24.8431 13.0002 26.5C13.0002 28.1569 11.657 29.5 10.0002 29.5C8.34331 29.5 7.00016 28.1569 7.00016 26.5Z" fill="#041862"/>
</g>
</g>
</svg>
