<svg width="24" height="24" viewBox="0 0 24 24" fill="none" xmlns="http://www.w3.org/2000/svg">
<path fill-rule="evenodd" clip-rule="evenodd" d="M1.91683 2.41927V6.71094H22.0835V2.41927H1.91683ZM0.0834961 2.3776C0.0834961 1.57878 0.643235 0.585938 1.70984 0.585938H22.2905C23.3571 0.585938 23.9168 1.57877 23.9168 2.3776V6.7526C23.9168 7.27739 23.6753 7.8859 23.2071 8.24165L23.2065 21.6276C23.2065 21.6276 23.2065 21.6276 23.2065 21.6276C23.2064 22.4264 22.6467 23.4193 21.5801 23.4193H2.41882C1.35222 23.4193 0.79248 22.4264 0.79248 21.6276L0.793143 8.2416C0.325041 7.88584 0.0834961 7.27736 0.0834961 6.7526V2.3776ZM2.62646 8.54427L2.62582 21.5859H21.3731L21.3738 8.54427H2.62646ZM10.2008 11.6092C10.2295 11.6517 10.4707 11.9559 12.0012 11.9559C13.5317 11.9559 13.7728 11.6517 13.8015 11.6092C13.8279 11.5702 13.8693 11.4799 13.8861 11.2399C13.8981 11.0671 13.8954 10.9024 13.8919 10.6926C13.8899 10.5759 13.8877 10.4452 13.8877 10.2913H15.721C15.721 10.3729 15.7225 10.4657 15.724 10.5647C15.728 10.8194 15.7326 11.1153 15.7149 11.3676C15.6885 11.7469 15.6078 12.2117 15.3193 12.6375C14.7183 13.5248 13.5578 13.7893 12.0012 13.7893C10.4446 13.7893 9.28406 13.5248 8.68298 12.6375C8.39447 12.2117 8.31386 11.7469 8.28737 11.3676C8.26976 11.1153 8.27434 10.8194 8.27829 10.5647C8.27983 10.4657 8.28126 10.3729 8.28126 10.2913H10.1146C10.1146 10.4452 10.1124 10.5759 10.1105 10.6926C10.1069 10.9024 10.1042 11.0671 10.1163 11.2399C10.133 11.48 10.1744 11.5702 10.2008 11.6092Z" fill="#041862"/>
</svg>
