<svg width="24" height="24" viewBox="0 0 24 24" fill="none" xmlns="http://www.w3.org/2000/svg">
<g id="Clock">
<g id="Vector">
<path fill-rule="evenodd" clip-rule="evenodd" d="M12 4.75C7.99594 4.75 4.75 7.99594 4.75 12C4.75 16.0041 7.99594 19.25 12 19.25C16.0041 19.25 19.25 16.0041 19.25 12C19.25 7.99594 16.0041 4.75 12 4.75ZM3.25 12C3.25 7.16751 7.16751 3.25 12 3.25C16.8325 3.25 20.75 7.16751 20.75 12C20.75 16.8325 16.8325 20.75 12 20.75C7.16751 20.75 3.25 16.8325 3.25 12Z" fill="#041862"/>
<path fill-rule="evenodd" clip-rule="evenodd" d="M9.66475 7.99341C10.0352 7.80816 10.4857 7.95833 10.671 8.32882L12.4233 11.8334L15.8769 11.2578C16.2854 11.1897 16.6719 11.4657 16.74 11.8743C16.8081 12.2828 16.532 12.6693 16.1235 12.7374L11.5771 13.4951L9.32934 8.99964C9.1441 8.62915 9.29427 8.17865 9.66475 7.99341Z" fill="#041862"/>
</g>
</g>
</svg>
