<svg width="17" height="17" viewBox="0 0 17 17" fill="none" xmlns="http://www.w3.org/2000/svg">
<path fill-rule="evenodd" clip-rule="evenodd" d="M1.23216 1.22826C1.61984 0.840582 2.24838 0.840582 2.63605 1.22826L16.6507 15.2429C17.0383 15.6305 17.0383 16.2591 16.6507 16.6467C16.263 17.0344 15.6344 17.0344 15.2468 16.6467L1.23216 2.63215C0.844488 2.24447 0.844488 1.61593 1.23216 1.22826Z" fill="#041862"/>
<path fill-rule="evenodd" clip-rule="evenodd" d="M16.6507 1.22826C17.0383 1.61593 17.0383 2.24447 16.6507 2.63215L2.63605 16.6467C2.24838 17.0344 1.61984 17.0344 1.23216 16.6467C0.844488 16.2591 0.844488 15.6305 1.23216 15.2429L15.2468 1.22826C15.6344 0.840582 16.263 0.840582 16.6507 1.22826Z" fill="#041862"/>
</svg>
