<svg width="56" height="56" viewBox="0 0 56 56" fill="none" xmlns="http://www.w3.org/2000/svg">
<path d="M56 28C56 43.464 43.464 56 28 56C12.536 56 0 43.464 0 28C0 12.536 12.536 0 28 0C43.464 0 56 12.536 56 28Z" fill="white"/>
<path d="M23.5683 28.139C23.7455 28.4926 23.8028 28.9718 23.7455 29.5076C23.6618 30.2905 23.4157 30.7571 22.8594 31.3325C22.0323 32.1878 18.0442 33.3589 15.9474 34.5259C14.1797 35.5097 12.0258 36.6109 10.9259 38.3466C10.2081 39.4794 9.73895 41.0297 10.1579 42.3384C10.6532 43.8856 12.1222 44.6863 13.5253 45.3608C15.652 46.3832 21.6188 47.0716 23.5683 47.1856C25.5178 47.2997 30.306 47.29 32.2525 47.1856C34.3793 47.0716 40.0945 46.6724 42.4727 45.6459C44.4074 44.8109 45.4298 43.7641 45.8401 42.3384C46.1838 41.1441 45.9584 39.4198 45.3084 38.3466C44.1698 36.4666 42.1312 35.5206 40.2278 34.5259C38.4225 33.5824 33.9657 32.3019 33.2568 31.3325C32.8108 30.7225 32.6462 30.0641 32.6661 29.5076C32.6859 28.9512 32.666 28.7093 33.0796 28.139C33.4931 27.5688 34.8768 25.8797 35.5017 25.0026C37.5518 22.1253 37.8157 18.7827 37.6285 15.3652C37.4816 12.6833 36.2106 10.256 33.6703 8.6362C32.1934 7.69445 29.7879 7.26758 27.8809 7.26758C26.2414 7.26758 24.2935 7.79572 22.8594 8.6362C20.3782 10.0904 18.9631 12.4806 18.6059 15.5933C18.2318 18.8531 19.1571 22.2256 20.9098 25.0026C21.7377 26.3142 23.2824 27.5688 23.5683 28.139Z" fill="#A0A6AA"/>
</svg>
