<svg width="32" height="32" viewBox="0 0 32 32" fill="none" xmlns="http://www.w3.org/2000/svg">
<g id="&#208;&#144;&#208;&#186;&#209;&#134;&#208;&#184;&#209;&#143;">
<g id="Vector">
<path d="M16.4899 19.1223V18.5867C16.4899 18.157 16.5825 17.7602 16.7676 17.3966C16.9561 17.0329 17.2288 16.7403 17.5858 16.5188C17.9429 16.2973 18.3776 16.1866 18.8901 16.1866C19.4157 16.1866 19.8571 16.2957 20.2141 16.5139C20.5745 16.7321 20.8472 17.023 21.0324 17.3867C21.2175 17.7503 21.3101 18.1503 21.3101 18.5867V19.1223C21.3101 19.5521 21.2159 19.9488 21.0274 20.3125C20.8423 20.6761 20.5695 20.9687 20.2092 21.1902C19.8488 21.4117 19.4091 21.5225 18.8901 21.5225C18.371 21.5225 17.933 21.4117 17.5759 21.1902C17.2189 20.9687 16.9478 20.6761 16.7627 20.3125C16.5808 19.9488 16.4899 19.5521 16.4899 19.1223ZM18.2156 18.5867V19.1223C18.2156 19.3108 18.2619 19.4975 18.3545 19.6827C18.4504 19.8645 18.6289 19.9554 18.8901 19.9554C19.1645 19.9554 19.3447 19.8662 19.4306 19.6876C19.5199 19.5091 19.5645 19.3207 19.5645 19.1223V18.5867C19.5645 18.3884 19.5232 18.1966 19.4405 18.0115C19.3579 17.8264 19.1744 17.7338 18.8901 17.7338C18.6289 17.7338 18.4504 17.8264 18.3545 18.0115C18.2619 18.1966 18.2156 18.3884 18.2156 18.5867ZM11.1738 13.3103V12.7748C11.1738 12.3384 11.268 11.9383 11.4565 11.5747C11.6482 11.211 11.9226 10.9201 12.2797 10.7019C12.6367 10.4837 13.0682 10.3746 13.574 10.3746C14.0997 10.3746 14.541 10.4837 14.8981 10.7019C15.2584 10.9201 15.5312 11.211 15.7163 11.5747C15.9014 11.9383 15.994 12.3384 15.994 12.7748V13.3103C15.994 13.7467 15.8998 14.1451 15.7113 14.5055C15.5262 14.8658 15.2535 15.1534 14.8931 15.3683C14.5327 15.5832 14.093 15.6907 13.574 15.6907C13.055 15.6907 12.6169 15.5816 12.2599 15.3634C11.9028 15.1452 11.6317 14.8559 11.4466 14.4955C11.2647 14.1352 11.1738 13.7401 11.1738 13.3103ZM12.9194 12.7748V13.3103C12.9194 13.5087 12.9657 13.6971 13.0583 13.8757C13.1508 14.0542 13.3227 14.1434 13.574 14.1434C13.8484 14.1434 14.0286 14.0542 14.1145 13.8757C14.2038 13.6971 14.2484 13.5087 14.2484 13.3103V12.7748C14.2484 12.5764 14.2071 12.3846 14.1244 12.1995C14.0418 12.0144 13.8583 11.9218 13.574 11.9218C13.3128 11.9218 13.1376 12.0177 13.0483 12.2094C12.9624 12.3979 12.9194 12.5863 12.9194 12.7748ZM12.0169 21.0266L18.9992 10.8705H20.4075L13.4252 21.0266H12.0169Z" fill="#041862"/>
<path fill-rule="evenodd" clip-rule="evenodd" d="M16.2051 3.91545L14.4121 6.94201C13.7345 8.08583 12.3835 8.64544 11.0955 8.31578L7.68763 7.44349L8.55992 10.8514C8.88958 12.1394 8.32997 13.4904 7.18615 14.168L4.15959 15.9609L7.18615 17.7539C8.32997 18.4315 8.88958 19.7825 8.55992 21.0705L7.68763 24.4784L11.0955 23.6061C12.3835 23.2764 13.7345 23.836 14.4121 24.9799L16.2051 28.0064L17.998 24.9799C18.6756 23.836 20.0267 23.2764 21.3146 23.6061L24.7225 24.4784L23.8502 21.0705C23.5206 19.7825 24.0802 18.4315 25.224 17.7539L28.2506 15.9609L25.224 14.168C24.0802 13.4904 23.5206 12.1394 23.8502 10.8514L24.7225 7.44349L21.3146 8.31578C20.0267 8.64544 18.6756 8.08583 17.998 6.94201L16.2051 3.91545ZM17.0633 1.45001C16.677 0.797912 15.7332 0.797912 15.3469 1.45001L12.6957 5.92521C12.4699 6.30649 12.0195 6.49302 11.5902 6.38314L6.55114 5.09334C5.81687 4.90539 5.14953 5.57273 5.33748 6.307L6.62728 11.3461C6.73716 11.7754 6.55063 12.2257 6.16935 12.4516L1.69415 15.1028C1.04205 15.4891 1.04205 16.4328 1.69415 16.8191L6.16935 19.4703C6.55063 19.6961 6.73716 20.1465 6.62728 20.5758L5.33748 25.6149C5.14953 26.3492 5.81687 27.0165 6.55114 26.8285L11.5902 25.5387C12.0195 25.4289 12.4699 25.6154 12.6957 25.9967L15.3469 30.4719C15.7332 31.124 16.677 31.124 17.0633 30.4719L19.7144 25.9967C19.9403 25.6154 20.3906 25.4289 20.8199 25.5387L25.859 26.8285C26.5933 27.0165 27.2606 26.3491 27.0727 25.6149L25.7829 20.5758C25.673 20.1465 25.8595 19.6961 26.2408 19.4703L30.716 16.8191C31.3681 16.4328 31.3681 15.4891 30.716 15.1028L26.2408 12.4516C25.8595 12.2257 25.673 11.7754 25.7829 11.3461L27.0727 6.30699C27.2606 5.57273 26.5933 4.90539 25.859 5.09334L20.8199 6.38314C20.3906 6.49302 19.9403 6.30649 19.7144 5.92521L17.0633 1.45001Z" fill="#041862"/>
</g>
</g>
</svg>
