<svg width="16" height="16" viewBox="0 0 16 16" fill="none" xmlns="http://www.w3.org/2000/svg">
<path d="M8.01217 5.875V5.89844C9.52174 5.89844 10.7391 7.07031 10.7391 8.5C10.7391 9.95312 9.52174 11.125 8.01217 11.125C6.50261 11.125 5.28522 9.95312 5.28522 8.5C5.28522 8.24219 5.33391 8.00781 5.40696 7.77344C5.57739 7.89062 5.82087 7.9375 6.06435 7.9375C6.79478 7.9375 7.42783 7.35156 7.42783 6.625C7.40348 6.41406 7.35478 6.17969 7.23304 5.99219C7.47652 5.92188 7.74435 5.89844 8.01217 5.875ZM14.927 8.17188C14.9757 8.26562 15 8.38281 15 8.52344C15 8.64062 14.9757 8.75781 14.927 8.85156C13.6122 11.3359 10.9826 13 8.01217 13C5.01739 13 2.38783 11.3359 1.07304 8.85156C1.02435 8.75781 1 8.64062 1 8.5C1 8.38281 1.02435 8.26562 1.07304 8.17188C2.38783 5.6875 5.01739 4 8.01217 4C10.9826 4 13.6122 5.6875 14.927 8.17188ZM8.01217 11.875C10.3983 11.875 12.6139 10.5859 13.7826 8.5C12.6139 6.41406 10.3983 5.125 8.01217 5.125C5.60174 5.125 3.38609 6.41406 2.21739 8.5C3.38609 10.5859 5.60174 11.875 8.01217 11.875Z" fill="#A0A6AA"/>
</svg>
