<svg width="15" height="10" viewBox="0 0 15 10" fill="none" xmlns="http://www.w3.org/2000/svg">
<path d="M7.51304 2.10938C9.13044 2.10938 10.4348 3.41146 10.4348 5C10.4348 6.61458 9.13044 7.91667 7.51304 7.91667C5.89565 7.91667 4.5913 6.61458 4.5913 5C4.5913 4.71354 4.64348 4.45313 4.72174 4.19271C4.90435 4.32292 5.16522 4.375 5.42609 4.375C6.2087 4.375 6.88696 3.72396 6.88696 2.91667C6.86087 2.68229 6.8087 2.42188 6.67826 2.21354C6.93913 2.13542 7.22609 2.13542 7.51304 2.10938ZM14.9217 4.63542C14.9739 4.73958 15 4.86979 15 5.02604C15 5.15625 14.9739 5.28646 14.9217 5.39063C13.513 8.15104 10.6957 10 7.51304 10C4.30435 10 1.48696 8.15104 0.0782609 5.39063C0.026087 5.28646 0 5.15625 0 5C0 4.86979 0.026087 4.73958 0.0782609 4.63542C1.48696 1.875 4.30435 0 7.51304 0C10.6957 0 13.513 1.875 14.9217 4.63542ZM7.51304 8.75C10.0696 8.75 12.4435 7.31771 13.6957 5C12.4435 2.68229 10.0696 1.25 7.51304 1.25C4.93044 1.25 2.55652 2.68229 1.30435 5C2.55652 7.31771 4.93044 8.75 7.51304 8.75Z" fill="#041862"/>
</svg>
