<svg width="25" height="24" viewBox="0 0 25 24" fill="none" xmlns="http://www.w3.org/2000/svg">
<path fill-rule="evenodd" clip-rule="evenodd" d="M1.75 17.5C1.75 17.0858 2.08579 16.75 2.5 16.75H22.5C22.9142 16.75 23.25 17.0858 23.25 17.5C23.25 17.9142 22.9142 18.25 22.5 18.25H2.5C2.08579 18.25 1.75 17.9142 1.75 17.5Z" fill="#041862"/>
<path d="M10.5 17.5C10.5 18.8807 9.38071 20 8 20C6.61929 20 5.5 18.8807 5.5 17.5C5.5 16.1193 6.61929 15 8 15C9.38071 15 10.5 16.1193 10.5 17.5Z" fill="white"/>
<path fill-rule="evenodd" clip-rule="evenodd" d="M8 18.5C8.55228 18.5 9 18.0523 9 17.5C9 16.9477 8.55228 16.5 8 16.5C7.44772 16.5 7 16.9477 7 17.5C7 18.0523 7.44772 18.5 8 18.5ZM8 20C9.38071 20 10.5 18.8807 10.5 17.5C10.5 16.1193 9.38071 15 8 15C6.61929 15 5.5 16.1193 5.5 17.5C5.5 18.8807 6.61929 20 8 20Z" fill="#041862"/>
<path fill-rule="evenodd" clip-rule="evenodd" d="M23.25 11.5C23.25 11.0858 22.9142 10.75 22.5 10.75H2.5C2.08579 10.75 1.75 11.0858 1.75 11.5C1.75 11.9142 2.08579 12.25 2.5 12.25H22.5C22.9142 12.25 23.25 11.9142 23.25 11.5Z" fill="#041862"/>
<path d="M14.5 11.5C14.5 12.8807 15.6193 14 17 14C18.3807 14 19.5 12.8807 19.5 11.5C19.5 10.1193 18.3807 9 17 9C15.6193 9 14.5 10.1193 14.5 11.5Z" fill="white"/>
<path fill-rule="evenodd" clip-rule="evenodd" d="M17 12.5C16.4477 12.5 16 12.0523 16 11.5C16 10.9477 16.4477 10.5 17 10.5C17.5523 10.5 18 10.9477 18 11.5C18 12.0523 17.5523 12.5 17 12.5ZM17 14C15.6193 14 14.5 12.8807 14.5 11.5C14.5 10.1193 15.6193 9 17 9C18.3807 9 19.5 10.1193 19.5 11.5C19.5 12.8807 18.3807 14 17 14Z" fill="#041862"/>
<path fill-rule="evenodd" clip-rule="evenodd" d="M1.75 5.5C1.75 5.08579 2.08579 4.75 2.5 4.75H22.5C22.9142 4.75 23.25 5.08579 23.25 5.5C23.25 5.91421 22.9142 6.25 22.5 6.25H2.5C2.08579 6.25 1.75 5.91421 1.75 5.5Z" fill="#041862"/>
<path d="M10.5 5.5C10.5 6.88071 9.38071 8 8 8C6.61929 8 5.5 6.88071 5.5 5.5C5.5 4.11929 6.61929 3 8 3C9.38071 3 10.5 4.11929 10.5 5.5Z" fill="white"/>
<path fill-rule="evenodd" clip-rule="evenodd" d="M8 6.5C8.55228 6.5 9 6.05228 9 5.5C9 4.94772 8.55228 4.5 8 4.5C7.44772 4.5 7 4.94772 7 5.5C7 6.05228 7.44772 6.5 8 6.5ZM8 8C9.38071 8 10.5 6.88071 10.5 5.5C10.5 4.11929 9.38071 3 8 3C6.61929 3 5.5 4.11929 5.5 5.5C5.5 6.88071 6.61929 8 8 8Z" fill="#041862"/>
</svg>
