<svg width="32" height="32" viewBox="0 0 32 32" fill="none" xmlns="http://www.w3.org/2000/svg">
<g id="Loupe">
<g id="Vector">
<path fill-rule="evenodd" clip-rule="evenodd" d="M12.5579 21.6814C16.4989 21.6814 19.6366 18.5788 19.6366 14.8208C19.6366 11.0627 16.4989 7.9602 12.5579 7.9602C8.61701 7.9602 5.47932 11.0627 5.47932 14.8208C5.47932 18.5788 8.61701 21.6814 12.5579 21.6814ZM12.5579 23.6416C17.5605 23.6416 21.6159 19.6924 21.6159 14.8208C21.6159 9.9492 17.5605 6 12.5579 6C7.55538 6 3.5 9.9492 3.5 14.8208C3.5 19.6924 7.55538 23.6416 12.5579 23.6416Z" fill="white"/>
<path fill-rule="evenodd" clip-rule="evenodd" d="M20.1296 19.5511C20.6427 18.9178 21.5935 18.795 22.2533 19.277L27.9154 23.4123C28.5752 23.8942 28.6942 24.7983 28.1811 25.4316C27.668 26.0649 26.7172 26.1876 26.0574 25.7057L20.3953 21.5703C19.7355 21.0884 19.6165 20.1843 20.1296 19.5511Z" fill="white"/>
</g>
</g>
</svg>
