<svg width="24" height="24" viewBox="0 0 24 24" fill="none" xmlns="http://www.w3.org/2000/svg">
<g id="Mail">
<path id="Vector 238 (Stroke)" fill-rule="evenodd" clip-rule="evenodd" d="M12.2378 4.56216C12.2215 4.55227 12.201 4.55232 12.1847 4.56228L5.49695 8.64598L12.1843 12.829C12.2008 12.8394 12.2217 12.8394 12.2383 12.8291L18.9924 8.646L12.2378 4.56216ZM19.7071 10.0283L13.0462 14.1537C12.532 14.4722 11.8834 14.4708 11.3706 14.15L4.79286 10.0355V19.3934C4.79286 19.422 4.81588 19.4452 4.84429 19.4452H19.6557C19.6841 19.4452 19.7071 19.422 19.7071 19.3934V10.0283ZM11.3852 3.23257C11.8908 2.92379 12.5246 2.92239 13.0316 3.22893L21.25 8.19784V19.3934C21.25 20.2807 20.5362 21 19.6557 21H4.84429C3.96379 21 3.25 20.2807 3.25 19.3934V8.20008L11.3852 3.23257Z" fill="#041862"/>
</g>
</svg>
