<svg width="24" height="24" viewBox="0 0 24 24" fill="none" xmlns="http://www.w3.org/2000/svg">
<g id="Phone">
<path id="Vector" d="M19.965 16.397C19.9197 16.2607 19.6318 16.0598 19.1014 15.7949C18.9577 15.7114 18.753 15.5979 18.4881 15.454C18.2229 15.31 17.9822 15.1773 17.7665 15.0561C17.5503 14.9349 17.3477 14.8175 17.1585 14.704C17.1282 14.6813 17.0335 14.6151 16.8745 14.505C16.7152 14.3952 16.5809 14.3138 16.4709 14.2606C16.3611 14.2078 16.253 14.1812 16.147 14.1812C15.9955 14.1812 15.8063 14.2893 15.5791 14.505C15.3519 14.7211 15.1435 14.9557 14.9542 15.2097C14.7649 15.4636 14.5641 15.6983 14.3522 15.9142C14.14 16.1302 13.9656 16.2381 13.8294 16.2381C13.761 16.2381 13.6758 16.2191 13.5736 16.1814C13.4715 16.1436 13.3938 16.1112 13.3404 16.085C13.2876 16.0583 13.1969 16.0054 13.068 15.9256C12.9389 15.8461 12.8671 15.8025 12.852 15.7949C11.8141 15.219 10.9241 14.5599 10.1816 13.8177C9.43934 13.0751 8.78015 12.1851 8.20443 11.1472C8.19687 11.132 8.1532 11.06 8.07372 10.9313C7.99412 10.8025 7.94106 10.7117 7.91456 10.6585C7.88805 10.6055 7.85585 10.5279 7.81804 10.4256C7.78023 10.3234 7.76124 10.2382 7.76124 10.1699C7.76124 10.0336 7.86922 9.85932 8.08514 9.64718C8.30103 9.43516 8.53593 9.23432 8.78962 9.04507C9.04351 8.85581 9.27818 8.64741 9.49414 8.42023C9.71002 8.19293 9.81796 8.00363 9.81796 7.85215C9.81796 7.74616 9.79146 7.6381 9.73848 7.52829C9.68547 7.41824 9.60403 7.28395 9.49414 7.12478C9.38421 6.9657 9.31794 6.87109 9.29518 6.84064C9.18166 6.65139 9.06437 6.44876 8.94302 6.23284C8.82166 6.01696 8.68921 5.77632 8.5452 5.51121C8.40132 5.24621 8.28777 5.04159 8.20435 4.89767C7.93935 4.36748 7.73864 4.07948 7.60224 4.03419C7.54918 4.01146 7.46958 4 7.36363 4C7.15897 4 6.89199 4.03781 6.56247 4.11367C6.23284 4.18941 5.97346 4.26886 5.78404 4.35232C5.40526 4.51132 5.00378 4.97342 4.5795 5.73843C4.19315 6.45039 4 7.15507 4 7.85195C4 8.05633 4.01325 8.25517 4.03976 8.44853C4.06627 8.64168 4.11363 8.85951 4.18189 9.10198C4.25003 9.34437 4.305 9.52443 4.34655 9.64169C4.38814 9.75902 4.46579 9.96921 4.57946 10.2723C4.69298 10.5754 4.76124 10.7609 4.78396 10.8291C5.04908 11.5715 5.36347 12.2343 5.72705 12.8177C6.32526 13.7873 7.14162 14.7894 8.17565 15.8235C9.20972 16.8575 10.2116 17.6739 11.1813 18.2723C11.7646 18.6359 12.4276 18.9502 13.17 19.2155C13.2382 19.2381 13.4237 19.3062 13.7266 19.4201C14.0297 19.5337 14.2399 19.6114 14.3573 19.6531C14.4747 19.6948 14.6548 19.7498 14.8969 19.818C15.1396 19.8863 15.3573 19.9337 15.5504 19.9604C15.7437 19.9865 15.9426 20 16.147 20C16.8439 20 17.5486 19.8067 18.2607 19.4204C19.0256 18.9963 19.4876 18.5947 19.6466 18.2157C19.7303 18.0265 19.8096 17.767 19.8853 17.4374C19.9613 17.1079 19.999 16.8409 19.999 16.6363C19.9992 16.5299 19.9878 16.4505 19.965 16.397Z" fill="#E30613"/>
</g>
</svg>
