<svg width="24" height="26" viewBox="0 0 24 26" fill="none" xmlns="http://www.w3.org/2000/svg">
<path fill-rule="evenodd" clip-rule="evenodd" d="M11.6649 1.05967L11.9863 0.945312L12.3106 1.0513L12.3389 1.06052L12.4237 1.08795C12.4979 1.11189 12.6063 1.14671 12.7422 1.18988C13.0142 1.27626 13.3954 1.3959 13.8322 1.52871C14.7109 1.79589 15.7949 2.11045 16.6635 2.31679C17.5276 2.52208 18.7429 2.74093 19.76 2.91064C20.2648 2.99486 20.7141 3.06589 21.0372 3.11584C21.1986 3.14081 21.3283 3.16049 21.4175 3.17389L21.5196 3.18916L21.5537 3.1942L22.3817 3.31576L22.4083 4.15178L21.4088 4.18365C22.4083 4.15178 22.4083 4.15171 22.4083 4.15178L22.4084 4.15316L22.4106 4.22672L22.4168 4.43975C22.4221 4.62495 22.4293 4.8937 22.4374 5.22891C22.4535 5.89919 22.4728 6.83581 22.4857 7.90173C22.5114 10.0277 22.5118 12.6897 22.4076 14.7789C22.3659 15.6156 22.3051 16.3804 22.1065 17.1341C21.9029 17.9064 21.5661 18.6275 21.0177 19.4196C19.7912 21.1909 18.2531 22.0045 16.6629 22.8456C16.5066 22.9283 16.3497 23.0113 16.1927 23.0954C15.5092 23.4616 14.6306 23.9126 13.9272 24.27C13.5745 24.4492 13.2642 24.6056 13.042 24.7174L12.7803 24.8487L12.6852 24.8963L12.238 24.0018L11.8759 24.9339L11.8448 24.9218L11.7579 24.8878C11.6826 24.8582 11.5736 24.8153 11.438 24.7613C11.167 24.6535 10.7888 24.5016 10.3601 24.3249C9.50819 23.974 8.43594 23.5171 7.6077 23.1125C6.68509 22.6618 5.69696 22.0605 4.84942 21.4229C4.0289 20.8056 3.23564 20.0772 2.81589 19.3505C2.12963 18.1625 1.50002 16.5952 1.5 14.7291V3.30601L2.3702 3.19211L2.40502 3.18751L2.50893 3.17357C2.59979 3.16128 2.73234 3.14314 2.89793 3.11988C3.22926 3.07335 3.69209 3.00643 4.21744 2.92499C5.27507 2.76103 6.56043 2.54212 7.53698 2.31558C8.38151 2.11967 9.40852 1.80821 10.2391 1.53992C10.6512 1.40681 11.0089 1.28631 11.2633 1.19917C11.3904 1.15563 11.4916 1.12049 11.5606 1.09636L11.6391 1.06877L11.6589 1.06179L11.6649 1.05967ZM3.5 5.05437V14.7291C3.50001 16.1357 3.97363 17.3563 4.54771 18.3501C4.75814 18.7144 5.28076 19.2446 6.05184 19.8247C6.7959 20.3845 7.67508 20.9196 8.48548 21.3154C9.25376 21.6907 10.2772 22.1277 11.1219 22.4757C11.5415 22.6486 11.9119 22.7974 12.1772 22.903C12.1812 22.9045 12.1851 22.9061 12.189 22.9076C12.4053 22.7988 12.6951 22.6526 13.0213 22.4869C13.7223 22.1308 14.5849 21.6879 15.2482 21.3325C15.3953 21.2537 15.5384 21.1775 15.6777 21.1034C17.318 20.2305 18.4353 19.6358 19.3734 18.2811C19.8071 17.6547 20.0356 17.1437 20.1725 16.6243C20.3143 16.0862 20.3692 15.4996 20.4101 14.6793C20.511 12.655 20.5114 10.0442 20.4858 7.92589C20.4731 6.86964 20.4539 5.94118 20.438 5.27693C20.436 5.1958 20.4341 5.11863 20.4323 5.04565C20.1466 5.00067 19.8037 4.94557 19.4309 4.88337C18.4097 4.71299 17.1367 4.48486 16.2012 4.26264C15.2702 4.04146 14.138 3.71208 13.2504 3.44221C12.804 3.30649 12.4147 3.18431 12.1367 3.09601C12.0925 3.08196 12.051 3.06875 12.0126 3.05648C11.9809 3.06741 11.9471 3.07903 11.9114 3.09126C11.6484 3.18133 11.2794 3.30566 10.8539 3.4431C10.0093 3.71591 8.91775 4.04838 7.98893 4.26385C6.93656 4.50797 5.59044 4.73603 4.52382 4.90138C4.14155 4.96064 3.79187 5.01235 3.5 5.05437ZM12.238 24.0018L11.8759 24.9339L12.2887 25.0943L12.6852 24.8963L12.238 24.0018ZM17.1751 7.91735C17.636 8.22167 17.7629 8.84199 17.4586 9.30286L12.0799 17.4484L7.04115 11.5773C6.68146 11.1582 6.72962 10.5269 7.14872 10.1672C7.56782 9.80754 8.19915 9.8557 8.55884 10.2748L11.8714 14.1346L15.7896 8.20081C16.094 7.73993 16.7143 7.61303 17.1751 7.91735Z" fill="#041862"/>
</svg>
