<svg width="24" height="24" viewBox="0 0 24 24" fill="none" xmlns="http://www.w3.org/2000/svg">
<g id="&#208;&#156;&#208;&#176;&#209;&#128;&#208;&#186;&#208;&#181;&#209;&#128; 3">
<path id="Subtract (Stroke)" fill-rule="evenodd" clip-rule="evenodd" d="M7.65263 4.54117C8.72424 3.37497 10.2841 2.6813 12.2757 2.72031C14.1986 2.75798 15.7252 3.46761 16.7902 4.61028C17.8463 5.74339 18.4032 7.25273 18.493 8.82494C18.5407 9.6598 18.3378 10.6182 18.0536 11.5001C17.7653 12.395 17.3716 13.2773 16.984 13.9823L16.9777 13.9937L12.2699 22.2188L7.42799 13.9818L7.4177 13.9617C6.63252 12.4241 5.93363 10.6487 6.00503 8.83854C6.06791 7.24464 6.59378 5.69347 7.65263 4.54117ZM8.74149 5.57754C7.97417 6.41259 7.54624 7.59179 7.49466 8.89941C7.43967 10.2936 7.97979 11.7684 8.73035 13.242L12.2528 19.2343L15.6861 13.2358C16.029 12.6112 16.3814 11.8208 16.637 11.0274C16.8976 10.2186 17.0366 9.47071 17.0047 8.91301C16.932 7.63968 16.4855 6.48804 15.7086 5.65449C14.9406 4.83051 13.8046 4.26783 12.247 4.23732C10.6347 4.20573 9.49605 4.75638 8.74149 5.57754ZM12.2516 7.11255C11.4148 7.11255 10.7035 7.82679 10.7035 8.74961C10.7035 9.67244 11.4148 10.3867 12.2516 10.3867C13.0885 10.3867 13.7998 9.67244 13.7998 8.74961C13.7998 7.82679 13.0885 7.11255 12.2516 7.11255ZM9.21265 8.74961C9.21265 7.02621 10.5551 5.59526 12.2516 5.59526C13.9482 5.59526 15.2906 7.02621 15.2906 8.74961C15.2906 10.473 13.9482 11.904 12.2516 11.904C10.5551 11.904 9.21265 10.473 9.21265 8.74961Z" fill="#041862"/>
</g>
</svg>
