<svg width="24" height="24" viewBox="0 0 24 24" fill="none" xmlns="http://www.w3.org/2000/svg">
<path d="M0 1C0 0.447716 0.447715 0 1 0H9C9.55228 0 10 0.447715 10 1V9C10 9.55228 9.55228 10 9 10H1C0.447716 10 0 9.55228 0 9V1Z" fill="#041862"/>
<path d="M14 1C14 0.447716 14.4477 0 15 0H23C23.5523 0 24 0.447715 24 1V9C24 9.55228 23.5523 10 23 10H15C14.4477 10 14 9.55228 14 9V1Z" fill="#041862"/>
<path d="M0 15C0 14.4477 0.447715 14 1 14H9C9.55228 14 10 14.4477 10 15V23C10 23.5523 9.55228 24 9 24H1C0.447716 24 0 23.5523 0 23V15Z" fill="#041862"/>
<path d="M14 15C14 14.4477 14.4477 14 15 14H23C23.5523 14 24 14.4477 24 15V23C24 23.5523 23.5523 24 23 24H15C14.4477 24 14 23.5523 14 23V15Z" fill="#041862"/>
</svg>
