<svg width="24" height="24" viewBox="0 0 24 24" fill="none" xmlns="http://www.w3.org/2000/svg">
<g id="Track">
<g id="Vector">
<path fill-rule="evenodd" clip-rule="evenodd" d="M8.71095 15.6875C7.9451 15.6875 7.31836 16.3136 7.31836 17.0932C7.31836 17.8728 7.9451 18.4989 8.71095 18.4989C9.4768 18.4989 10.1035 17.8728 10.1035 17.0932C10.1035 16.3136 9.4768 15.6875 8.71095 15.6875ZM6.31836 17.0932C6.31836 15.7678 7.3863 14.6875 8.71095 14.6875C10.0356 14.6875 11.1035 15.7678 11.1035 17.0932C11.1035 18.4186 10.0356 19.4989 8.71095 19.4989C7.3863 19.4989 6.31836 18.4186 6.31836 17.0932Z" fill="#041862"/>
<path fill-rule="evenodd" clip-rule="evenodd" d="M18.3633 15.6875C17.5974 15.6875 16.9707 16.3136 16.9707 17.0932C16.9707 17.8728 17.5974 18.4989 18.3633 18.4989C19.1291 18.4989 19.7559 17.8728 19.7559 17.0932C19.7559 16.3136 19.1291 15.6875 18.3633 15.6875ZM15.9707 17.0932C15.9707 15.7678 17.0387 14.6875 18.3633 14.6875C19.6879 14.6875 20.7559 15.7678 20.7559 17.0932C20.7559 18.4186 19.6879 19.4989 18.3633 19.4989C17.0387 19.4989 15.9707 18.4186 15.9707 17.0932Z" fill="#041862"/>
<path fill-rule="evenodd" clip-rule="evenodd" d="M0.5 5.19948C0.5 4.81317 0.813166 4.5 1.19948 4.5H12.7698C13.1561 4.5 13.4693 4.81317 13.4693 5.19948V13.5668C13.4693 13.9531 13.1561 14.2663 12.7698 14.2663H1.19948C0.813169 14.2663 0.5 13.9531 0.5 13.5668V5.19948ZM1.5 5.5V13.2663H12.4693V5.5H1.5ZM14.3619 6.62877C14.3619 6.24245 14.675 5.92929 15.0613 5.92929H18.1718C18.386 5.92929 18.5885 6.02752 18.7211 6.19583L22.0724 10.4487C22.1696 10.572 22.2225 10.7245 22.2225 10.8816V16.0296H23V17.0296H20.445V16.0296H21.2225V10.9858L18.026 6.92929H15.3619V16.0296H16.3759V17.0296H10.6982V16.0296H14.3619V6.62877ZM16.8759 8.73972V9.93129H18.2617L17.4385 8.73972H16.8759ZM15.8759 8.4392C15.8759 8.05288 16.1891 7.73972 16.5754 7.73972H17.5961C17.8259 7.73972 18.041 7.85256 18.1716 8.04161L19.4101 9.83423C19.7306 10.2982 19.3985 10.9313 18.8346 10.9313H16.5754C16.1891 10.9313 15.8759 10.6181 15.8759 10.2318V8.4392ZM6.72374 17.0296H2.7493V16.0296H6.72374V17.0296Z" fill="#041862"/>
</g>
</g>
</svg>
