<svg width="24" height="24" viewBox="0 0 24 24" fill="none" xmlns="http://www.w3.org/2000/svg">
<path fill-rule="evenodd" clip-rule="evenodd" d="M9.02384 3.16113C8.39796 3.92617 8 5.1851 8 7.11111C8 9.91704 8.84491 11.2175 9.47984 11.9625C9.62977 12.1384 9.77157 12.2872 9.91539 12.4382C9.938 12.462 9.96067 12.4858 9.98342 12.5097C10.1314 12.6655 10.3271 12.8722 10.4723 13.093C10.6266 13.3276 10.8043 13.6968 10.7428 14.1605C10.6837 14.6061 10.4298 14.9339 10.1991 15.1595C9.46099 15.8812 8.56782 16.3952 7.71265 16.8133C7.2828 17.0235 6.8458 17.2171 6.43326 17.3998L6.42734 17.4024C6.01076 17.5869 5.6205 17.7598 5.25171 17.9401C4.49956 18.3078 3.93499 18.6616 3.55737 19.0734C3.21103 19.4511 3 19.9002 3 20.5556V21.9852H21V20.5556C21 19.9002 20.789 19.4511 20.4426 19.0734C20.065 18.6616 19.5004 18.3078 18.7483 17.9401C18.3795 17.7598 17.9892 17.5869 17.5727 17.4024L17.5667 17.3998C17.1542 17.2171 16.7172 17.0235 16.2874 16.8133C15.4322 16.3952 14.539 15.8812 13.8009 15.1595C13.5702 14.9339 13.3163 14.6061 13.2572 14.1605C13.1957 13.6968 13.3734 13.3276 13.5277 13.093C13.6729 12.8722 13.8686 12.6655 14.0166 12.5097C14.0393 12.4858 14.062 12.462 14.0846 12.4382C14.2284 12.2872 14.3702 12.1384 14.5202 11.9625C15.1551 11.2175 16 9.91704 16 7.11111C16 5.1851 15.602 3.92617 14.9762 3.16113C14.3817 2.43451 13.4538 2 12 2C10.5462 2 9.61827 2.43451 9.02384 3.16113ZM21.8275 23.9852H2.17245C2.11643 23.9949 2.05881 24 2 24C1.44772 24 1 23.5523 1 23V20.5556C1 19.3776 1.41397 18.4517 2.08325 17.7217C2.72126 17.0259 3.56294 16.5395 4.37329 16.1433C4.77631 15.9462 5.19607 15.7604 5.60025 15.5814L5.62338 15.5711C6.04092 15.3862 6.44376 15.2074 6.83423 15.0165C7.50998 14.6862 8.09978 14.342 8.5773 13.9336C8.56342 13.9189 8.54873 13.9033 8.53318 13.887C8.51353 13.8663 8.49287 13.8446 8.47132 13.822C8.32845 13.6722 8.14632 13.4811 7.95766 13.2598C7.03009 12.1714 6 10.4163 6 7.11111C6 4.96346 6.43517 3.16683 7.47585 1.89474C8.54798 0.584213 10.1201 0 12 0C13.8799 0 15.452 0.584213 16.5241 1.89474C17.5648 3.16683 18 4.96346 18 7.11111C18 10.4163 16.9699 12.1714 16.0423 13.2598C15.8537 13.4811 15.6715 13.6722 15.5287 13.822C15.5071 13.8446 15.4865 13.8663 15.4668 13.887C15.4513 13.9033 15.4366 13.9189 15.4227 13.9336C15.9002 14.342 16.49 14.6862 17.1658 15.0165C17.5562 15.2074 17.9591 15.3862 18.3766 15.5711L18.3998 15.5814C18.804 15.7604 19.2237 15.9463 19.6267 16.1433C20.4371 16.5395 21.2787 17.0259 21.9167 17.7217C22.586 18.4517 23 19.3776 23 20.5556V23C23 23.5523 22.5523 24 22 24C21.9412 24 21.8836 23.9949 21.8275 23.9852ZM15.1671 13.6949C15.1671 13.695 15.1683 13.6963 15.1702 13.699C15.1679 13.6963 15.167 13.6949 15.1671 13.6949ZM8.83295 13.6949C8.83302 13.6949 8.83206 13.6963 8.82982 13.6989C8.83175 13.6963 8.83287 13.6949 8.83295 13.6949Z" fill="#041862"/>
</svg>
